<svg width="63" height="22" viewBox="0 0 63 22" fill="none" xmlns="http://www.w3.org/2000/svg">
<rect width="63" height="21.2933" fill="white"/>
<path d="M5.4585 8.59961H6.46757L8.09367 13.8845L9.87147 8.59961H10.6913L12.4691 13.8845L14.0952 8.59961H15.1043L12.9106 15.1526H12.0157L10.2891 9.91741L8.53684 15.1526H7.64197L5.4602 8.59961H5.4585Z" fill="black"/>
<path d="M21.132 13.5182L21.7115 14.1385C21.1439 14.7588 19.9968 15.153 19.09 15.153C17.3497 15.153 15.7866 13.7204 15.7866 11.7051C15.7866 9.68984 17.2491 8.29492 19.0013 8.29492C20.9683 8.29492 22.0899 9.79095 22.0899 12.0838H16.7582C16.8963 13.3639 17.7911 14.3013 19.078 14.3013C19.8468 14.3013 20.7297 13.9586 21.1337 13.5147L21.132 13.5182ZM16.7701 11.2373H21.1575C21.0314 10.0583 20.3377 9.14661 19.0405 9.14661C17.8815 9.14661 16.9474 9.97088 16.7718 11.2373H16.7701Z" fill="black"/>
<path d="M29.0872 11.7186C29.0872 13.7338 27.802 15.1528 26.0872 15.1528C25.0407 15.1528 24.2089 14.6335 23.718 13.7715V15.0002H22.772V6.14062H23.718V9.6759C24.2089 8.81393 25.0424 8.29469 26.0872 8.29469C27.802 8.29469 29.0872 9.7136 29.0872 11.7169V11.7186ZM28.0917 11.7186C28.0917 10.2106 27.1832 9.14638 25.9117 9.14638C24.6401 9.14638 23.718 10.2106 23.718 11.7186C23.718 13.2266 24.6265 14.3045 25.9117 14.3045C27.1969 14.3045 28.0917 13.2266 28.0917 11.7186Z" fill="black"/>
<path d="M29.7712 14.1745L30.2621 13.477C31.0053 14.022 31.7502 14.3013 32.4678 14.3013C33.3251 14.3013 33.9047 13.8952 33.9047 13.2748C33.9047 12.5654 33.1479 12.3374 32.2649 12.0838C30.69 11.628 30.0849 11.1584 30.0849 10.2211C30.0849 9.03008 31.0684 8.29492 32.3672 8.29492C33.1734 8.29492 34.0069 8.57425 34.699 9.03008L34.2456 9.76524C33.5893 9.34711 32.9467 9.1449 32.3672 9.1449C31.636 9.1449 31.0309 9.47392 31.0309 10.108C31.0309 10.6786 31.5098 10.8551 32.72 11.2493C33.7666 11.5783 34.8507 11.933 34.8507 13.1754C34.8507 14.4178 33.8177 15.153 32.4678 15.153C31.5593 15.153 30.5519 14.8103 29.7695 14.1762L29.7712 14.1745Z" fill="black"/>
<path d="M45.8745 8.29688C43.9074 8.29688 42.7859 9.7929 42.7859 12.0858H48.1193C47.9795 13.3659 47.0847 14.305 45.7995 14.305C45.6341 14.305 45.4688 14.2895 45.3069 14.2621C45.2796 14.257 45.2523 14.2518 45.225 14.2467C44.8449 14.1747 44.4768 14.0376 44.1495 13.832C44.0063 13.7412 43.8751 13.6349 43.7421 13.5287C43.541 13.3659 43.3364 13.2099 43.0961 13.1088C42.8541 13.006 42.5916 12.9529 42.3291 12.9495H42.2933C42.0308 12.9529 41.7683 13.006 41.5263 13.1088C41.2859 13.2099 41.0814 13.3659 40.8785 13.5287C40.7473 13.6349 40.616 13.7412 40.4729 13.832C40.1439 14.0376 39.7774 14.1747 39.3973 14.2467C39.37 14.2518 39.3428 14.257 39.3155 14.2621C39.1536 14.2895 38.9882 14.305 38.8229 14.305C37.5377 14.305 36.6428 13.3659 36.5031 12.0858H41.8365C41.8365 9.7929 40.7149 8.29688 38.7479 8.29688C36.9957 8.29688 35.5332 9.7552 35.5332 11.7071C35.5332 13.6589 37.0962 15.1532 38.8365 15.1532C39.3922 15.1532 39.9581 15.0178 40.4695 14.8036C40.6263 14.7368 40.7797 14.6614 40.9246 14.5689C41.1427 14.4318 41.3234 14.2416 41.5228 14.0805C41.7155 13.9228 41.9524 13.8166 42.2012 13.7926H42.2081C42.237 13.7892 42.266 13.7874 42.2933 13.7874H42.312C42.3444 13.7874 42.3802 13.7892 42.4143 13.7926H42.4211C42.67 13.8166 42.9069 13.9228 43.0995 14.0805C43.2989 14.2416 43.4796 14.4318 43.6978 14.5689C43.8427 14.6614 43.9961 14.7368 44.1529 14.8036C44.6643 15.0178 45.2301 15.1532 45.7858 15.1532C47.5261 15.1532 49.0892 13.7223 49.0892 11.7071C49.0892 9.69179 47.6267 8.29688 45.8745 8.29688ZM43.72 11.2358C43.8461 10.0585 44.5398 9.14514 45.837 9.14514C46.9977 9.14514 47.9301 9.96941 48.1057 11.2358H43.72ZM38.7854 9.14514C40.0825 9.14514 40.7763 10.0585 40.9024 11.2358H36.5167C36.6923 9.96941 37.6246 9.14514 38.7854 9.14514Z" fill="black"/>
<path d="M52.5584 11.6034L55.3316 15.1523H54.147L51.8902 12.2494L50.7175 13.4147V15.1506H49.7715V6.29102H50.7175V12.222L54.285 8.5976H55.4952L52.5584 11.6016V11.6034Z" fill="black"/>
<rect x="56.1772" y="13.7881" width="1.36457" height="1.36457" fill="#66FF00"/>
</svg>
