<svg width="63" height="22" viewBox="0 0 63 22" fill="none" xmlns="http://www.w3.org/2000/svg">
<rect width="63" height="21.2933" fill="white"/>
<path d="M9 8.87891H9.87183L11.2768 13.445L12.8128 8.87891H13.5211L15.0571 13.445L16.4621 8.87891H17.3339L15.4386 14.5407H14.6654L13.1736 10.0175L11.6597 14.5407H10.8865L9.00147 8.87891H9Z" fill="black"/>
<path d="M22.5417 13.1281L23.0424 13.664C22.552 14.2 21.5609 14.5405 20.7774 14.5405C19.2738 14.5405 17.9233 13.3028 17.9233 11.5616C17.9233 9.82043 19.1869 8.61523 20.7008 8.61523C22.4003 8.61523 23.3693 9.90779 23.3693 11.8888H18.7628C18.8821 12.9948 19.6552 13.8047 20.7671 13.8047C21.4313 13.8047 22.1941 13.5086 22.5431 13.1251L22.5417 13.1281ZM18.7731 11.1574H22.5638C22.4548 10.1388 21.8554 9.35109 20.7347 9.35109C19.7333 9.35109 18.9262 10.0632 18.7745 11.1574H18.7731Z" fill="black"/>
<path d="M29.4153 11.5732C29.4153 13.3144 28.3049 14.5403 26.8233 14.5403C25.9191 14.5403 25.2005 14.0917 24.7763 13.347V14.4085H23.959V6.75391H24.7763V9.80835C25.2005 9.06362 25.9206 8.615 26.8233 8.615C28.3049 8.615 29.4153 9.84093 29.4153 11.5717V11.5732ZM28.5552 11.5732C28.5552 10.2703 27.7703 9.35085 26.6717 9.35085C25.573 9.35085 24.7763 10.2703 24.7763 11.5732C24.7763 12.8761 25.5613 13.8074 26.6717 13.8074C27.7821 13.8074 28.5552 12.8761 28.5552 11.5732Z" fill="black"/>
<path d="M30.0059 13.6951L30.43 13.0925C31.0721 13.5634 31.7156 13.8047 32.3356 13.8047C33.0764 13.8047 33.5771 13.4538 33.5771 12.9178C33.5771 12.3049 32.9232 12.1079 32.1604 11.8888C30.7996 11.495 30.2768 11.0893 30.2768 10.2794C30.2768 9.25041 31.1266 8.61523 32.2488 8.61523C32.9453 8.61523 33.6655 8.85657 34.2634 9.25041L33.8716 9.88558C33.3047 9.52431 32.7495 9.34961 32.2488 9.34961C31.617 9.34961 31.0942 9.63388 31.0942 10.1817C31.0942 10.6747 31.508 10.8272 32.5536 11.1678C33.4578 11.452 34.3945 11.7585 34.3945 12.8319C34.3945 13.9054 33.502 14.5405 32.3356 14.5405C31.5507 14.5405 30.6804 14.2444 30.0044 13.6966L30.0059 13.6951Z" fill="black"/>
<path d="M43.9191 8.61621C42.2196 8.61621 41.2506 9.90876 41.2506 11.8898H45.8586C45.7379 12.9958 44.9647 13.8071 43.8543 13.8071C43.7115 13.8071 43.5686 13.7938 43.4287 13.7701C43.4052 13.7657 43.3816 13.7612 43.358 13.7568C43.0296 13.6946 42.7115 13.5762 42.4288 13.3985C42.3051 13.32 42.1917 13.2282 42.0768 13.1364C41.903 12.9958 41.7263 12.861 41.5187 12.7737C41.3095 12.6849 41.0827 12.639 40.8559 12.636H40.825C40.5982 12.639 40.3714 12.6849 40.1623 12.7737C39.9547 12.861 39.7779 12.9958 39.6027 13.1364C39.4893 13.2282 39.3759 13.32 39.2522 13.3985C38.968 13.5762 38.6513 13.6946 38.3229 13.7568C38.2994 13.7612 38.2758 13.7657 38.2523 13.7701C38.1123 13.7938 37.9695 13.8071 37.8266 13.8071C36.7162 13.8071 35.9431 12.9958 35.8223 11.8898H40.4303C40.4303 9.90876 39.4613 8.61621 37.7618 8.61621C36.2479 8.61621 34.9844 9.87619 34.9844 11.5626C34.9844 13.249 36.3348 14.54 37.8384 14.54C38.3185 14.54 38.8074 14.4231 39.2493 14.238C39.3847 14.1803 39.5173 14.1151 39.6425 14.0352C39.831 13.9167 39.9871 13.7524 40.1594 13.6132C40.3258 13.477 40.5305 13.3852 40.7455 13.3644H40.7514C40.7764 13.3615 40.8015 13.36 40.825 13.36H40.8412C40.8692 13.36 40.9001 13.3615 40.9296 13.3644H40.9355C41.1505 13.3852 41.3552 13.477 41.5216 13.6132C41.6939 13.7524 41.85 13.9167 42.0385 14.0352C42.1637 14.1151 42.2962 14.1803 42.4317 14.238C42.8735 14.4231 43.3624 14.54 43.8425 14.54C45.3461 14.54 46.6966 13.3037 46.6966 11.5626C46.6966 9.82141 45.433 8.61621 43.9191 8.61621ZM42.0577 11.1554C42.1666 10.1383 42.766 9.3491 43.8867 9.3491C44.8896 9.3491 45.6952 10.0613 45.8469 11.1554H42.0577ZM37.7942 9.3491C38.915 9.3491 39.5143 10.1383 39.6233 11.1554H35.8341C35.9858 10.0613 36.7914 9.3491 37.7942 9.3491Z" fill="black"/>
<path d="M49.6935 11.4736L52.0895 14.5399H51.066L49.1162 12.0318L48.103 13.0386V14.5384H47.2856V6.88379H48.103V12.0081L51.1853 8.87666H52.2309L49.6935 11.4721V11.4736Z" fill="black"/>
<rect x="52.8208" y="13.3613" width="1.17898" height="1.17898" fill="#66FF00"/>
</svg>
