<svg width="121" height="44" viewBox="0 0 121 44" fill="none" xmlns="http://www.w3.org/2000/svg">
<rect width="121" height="44" fill="#030303"/>
<path d="M19.4141 20.6403V12.2383H27.8161" stroke="#66FF00" stroke-width="2.35257"/>
<path d="M27.1476 28.7368L23.8615 17.0933H26.13L28.2279 25.6497H28.3359L30.5759 17.0933H32.6397L34.8854 25.6554H34.9877L37.0856 17.0933H39.354L36.0679 28.7368H33.9871L31.6561 20.567H31.5651L29.2285 28.7368H27.1476ZM43.7005 28.9074C42.8249 28.9074 42.0688 28.7254 41.432 28.3616C40.7991 27.9939 40.312 27.4747 39.9709 26.8038C39.6298 26.1291 39.4592 25.3351 39.4592 24.4217C39.4592 23.5234 39.6298 22.735 39.9709 22.0566C40.3158 21.3743 40.7972 20.8437 41.415 20.4647C42.0328 20.0819 42.7586 19.8905 43.5924 19.8905C44.1307 19.8905 44.6385 19.9776 45.1161 20.152C45.5975 20.3225 46.022 20.5879 46.3896 20.9479C46.7611 21.308 47.0529 21.7666 47.2652 22.3238C47.4774 22.8771 47.5835 23.5366 47.5835 24.3023V24.9333H40.4257V23.5461H45.6107C45.6069 23.1519 45.5217 22.8013 45.3549 22.4943C45.1881 22.1835 44.955 21.9391 44.6556 21.7609C44.36 21.5828 44.015 21.4937 43.6209 21.4937C43.2002 21.4937 42.8306 21.596 42.5122 21.8007C42.1939 22.0016 41.9456 22.2669 41.7675 22.5967C41.5931 22.9226 41.504 23.2808 41.5002 23.6712V24.8822C41.5002 25.3901 41.5931 25.8259 41.7788 26.1898C41.9645 26.5499 42.2242 26.8265 42.5577 27.0198C42.8912 27.2094 43.2816 27.3041 43.7289 27.3041C44.0283 27.3041 44.2993 27.2624 44.5419 27.179C44.7845 27.0919 44.9948 26.9649 45.173 26.7981C45.3511 26.6314 45.4857 26.4248 45.5766 26.1784L47.4983 26.3945C47.377 26.9024 47.1458 27.3458 46.8046 27.7248C46.4673 28.1001 46.0352 28.3919 45.5084 28.6004C44.9816 28.805 44.3789 28.9074 43.7005 28.9074ZM49.4156 28.7368V17.0933H51.4737V21.4482H51.559C51.6651 21.236 51.8148 21.0105 52.0081 20.7717C52.2014 20.5291 52.463 20.3225 52.7927 20.152C53.1225 19.9776 53.5432 19.8905 54.0549 19.8905C54.7295 19.8905 55.3378 20.0629 55.8798 20.4078C56.4256 20.7489 56.8577 21.2549 57.1761 21.9258C57.4983 22.5929 57.6594 23.4116 57.6594 24.3819C57.6594 25.3408 57.5021 26.1557 57.1875 26.8265C56.8729 27.4974 56.4446 28.0091 55.9026 28.3616C55.3606 28.7141 54.7466 28.8903 54.0605 28.8903C53.5602 28.8903 53.1452 28.8069 52.8155 28.6402C52.4857 28.4734 52.2204 28.2725 52.0195 28.0375C51.8224 27.7987 51.6689 27.5732 51.559 27.361H51.4396V28.7368H49.4156ZM51.4339 24.3705C51.4339 24.9352 51.5135 25.4299 51.6727 25.8544C51.8357 26.2789 52.0688 26.6105 52.372 26.8493C52.679 27.0843 53.0505 27.2018 53.4863 27.2018C53.9412 27.2018 54.3221 27.0805 54.6291 26.8379C54.9361 26.5916 55.1673 26.2561 55.3227 25.8316C55.4819 25.4033 55.5615 24.9163 55.5615 24.3705C55.5615 23.8285 55.4838 23.3471 55.3284 22.9264C55.173 22.5057 54.9418 22.176 54.6348 21.9372C54.3278 21.6984 53.9449 21.579 53.4863 21.579C53.0467 21.579 52.6733 21.6946 52.3663 21.9258C52.0593 22.157 51.8262 22.4811 51.667 22.898C51.5116 23.3149 51.4339 23.8057 51.4339 24.3705ZM66.311 22.3124L64.4348 22.5171C64.3818 22.3276 64.2889 22.1494 64.1563 21.9827C64.0274 21.8159 63.853 21.6813 63.6332 21.579C63.4134 21.4767 63.1443 21.4255 62.8259 21.4255C62.3976 21.4255 62.0375 21.5183 61.7457 21.7041C61.4576 21.8898 61.3155 22.1305 61.3193 22.4261C61.3155 22.6801 61.4084 22.8866 61.5979 23.0458C61.7912 23.205 62.1095 23.3358 62.553 23.4381L64.0426 23.7565C64.8688 23.9346 65.4828 24.217 65.8846 24.6036C66.2902 24.9902 66.4948 25.4962 66.4986 26.1216C66.4948 26.6711 66.3337 27.1563 66.0154 27.577C65.7008 27.9939 65.263 28.3199 64.7021 28.5549C64.1411 28.7899 63.4968 28.9074 62.769 28.9074C61.7002 28.9074 60.8398 28.6838 60.1879 28.2365C59.536 27.7855 59.1475 27.1582 59.0224 26.3547L61.0293 26.1614C61.1203 26.5555 61.3136 26.8531 61.6092 27.054C61.9049 27.2548 62.2896 27.3553 62.7634 27.3553C63.2523 27.3553 63.6446 27.2548 63.9402 27.054C64.2396 26.8531 64.3894 26.6048 64.3894 26.3092C64.3894 26.059 64.2927 25.8525 64.0994 25.6895C63.9099 25.5265 63.6143 25.4014 63.2125 25.3143L61.7229 25.0016C60.8853 24.8272 60.2656 24.5335 59.8638 24.1203C59.4621 23.7034 59.2631 23.1766 59.2669 22.5398C59.2631 22.0016 59.409 21.5354 59.7047 21.1412C60.0041 20.7432 60.4191 20.4362 60.9497 20.2202C61.4842 20.0004 62.1001 19.8905 62.7975 19.8905C63.8208 19.8905 64.6262 20.1084 65.2137 20.5443C65.805 20.9801 66.1708 21.5695 66.311 22.3124ZM72.0617 28.9074C71.1862 28.9074 70.43 28.7254 69.7933 28.3616C69.1603 27.9939 68.6733 27.4747 68.3321 26.8038C67.991 26.1291 67.8205 25.3351 67.8205 24.4217C67.8205 23.5234 67.991 22.735 68.3321 22.0566C68.677 21.3743 69.1584 20.8437 69.7762 20.4647C70.394 20.0819 71.1198 19.8905 71.9537 19.8905C72.4919 19.8905 72.9998 19.9776 73.4774 20.152C73.9587 20.3225 74.3832 20.5879 74.7509 20.9479C75.1223 21.308 75.4142 21.7666 75.6264 22.3238C75.8387 22.8771 75.9448 23.5366 75.9448 24.3023V24.9333H68.787V23.5461H73.972C73.9682 23.1519 73.8829 22.8013 73.7161 22.4943C73.5494 22.1835 73.3163 21.9391 73.0168 21.7609C72.7212 21.5828 72.3763 21.4937 71.9821 21.4937C71.5614 21.4937 71.1919 21.596 70.8735 21.8007C70.5551 22.0016 70.3068 22.2669 70.1287 22.5967C69.9543 22.9226 69.8653 23.2808 69.8615 23.6712V24.8822C69.8615 25.3901 69.9543 25.8259 70.1401 26.1898C70.3258 26.5499 70.5854 26.8265 70.919 27.0198C71.2525 27.2094 71.6429 27.3041 72.0901 27.3041C72.3896 27.3041 72.6606 27.2624 72.9031 27.179C73.1457 27.0919 73.3561 26.9649 73.5342 26.7981C73.7123 26.6314 73.8469 26.4248 73.9379 26.1784L75.8595 26.3945C75.7382 26.9024 75.507 27.3458 75.1659 27.7248C74.8286 28.1001 74.3965 28.3919 73.8696 28.6004C73.3428 28.805 72.7402 28.9074 72.0617 28.9074ZM81.5519 28.9074C80.6764 28.9074 79.9202 28.7254 79.2835 28.3616C78.6505 27.9939 78.1635 27.4747 77.8224 26.8038C77.4812 26.1291 77.3107 25.3351 77.3107 24.4217C77.3107 23.5234 77.4812 22.735 77.8224 22.0566C78.1673 21.3743 78.6486 20.8437 79.2664 20.4647C79.8842 20.0819 80.6101 19.8905 81.4439 19.8905C81.9821 19.8905 82.49 19.9776 82.9676 20.152C83.4489 20.3225 83.8734 20.5879 84.2411 20.9479C84.6125 21.308 84.9044 21.7666 85.1166 22.3238C85.3289 22.8771 85.435 23.5366 85.435 24.3023V24.9333H78.2772V23.5461H83.4622C83.4584 23.1519 83.3731 22.8013 83.2064 22.4943C83.0396 22.1835 82.8065 21.9391 82.5071 21.7609C82.2114 21.5828 81.8665 21.4937 81.4723 21.4937C81.0516 21.4937 80.6821 21.596 80.3637 21.8007C80.0453 22.0016 79.7971 22.2669 79.6189 22.5967C79.4446 22.9226 79.3555 23.2808 79.3517 23.6712V24.8822C79.3517 25.3901 79.4446 25.8259 79.6303 26.1898C79.816 26.5499 80.0756 26.8265 80.4092 27.0198C80.7427 27.2094 81.1331 27.3041 81.5804 27.3041C81.8798 27.3041 82.1508 27.2624 82.3934 27.179C82.6359 27.0919 82.8463 26.9649 83.0244 26.7981C83.2026 26.6314 83.3371 26.4248 83.4281 26.1784L85.3497 26.3945C85.2284 26.9024 84.9972 27.3458 84.6561 27.7248C84.3188 28.1001 83.8867 28.3919 83.3599 28.6004C82.833 28.805 82.2304 28.9074 81.5519 28.9074ZM89.0523 25.9965L89.0466 23.512H89.3764L92.5147 20.0042H94.9196L91.0592 24.3023H90.6328L89.0523 25.9965ZM87.1761 28.7368V17.0933H89.2342V28.7368H87.1761ZM92.6568 28.7368L89.8141 24.7628L91.2014 23.313L95.1185 28.7368H92.6568Z" fill="white"/>
<rect x="98.5625" y="25.3452" width="3.02474" height="3.02474" fill="#66FF00"/>
</svg>
