<svg width="24" height="22" viewBox="0 0 24 22" fill="none" xmlns="http://www.w3.org/2000/svg">
<path d="M0.75 13.85C1.16421 13.85 1.5 14.1858 1.5 14.6V18.35C1.5 19.1785 2.17157 19.85 3 19.85H21C21.8284 19.85 22.5 19.1785 22.5 18.35V14.6C22.5 14.1858 22.8358 13.85 23.25 13.85C23.6642 13.85 24 14.1858 24 14.6V18.35C24 20.0069 22.6569 21.35 21 21.35H3C1.34315 21.35 0 20.0069 0 18.35V14.6C0 14.1858 0.335786 13.85 0.75 13.85Z" fill="black"/>
<path d="M11.4697 0.71967C11.7626 0.426777 12.2374 0.426777 12.5303 0.71967L17.0303 5.21967C17.3232 5.51256 17.3232 5.98744 17.0303 6.28033C16.7374 6.57322 16.2626 6.57322 15.9697 6.28033L12.75 3.06066V16.25C12.75 16.6642 12.4142 17 12 17C11.5858 17 11.25 16.6642 11.25 16.25V3.06066L8.03033 6.28033C7.73744 6.57322 7.26256 6.57322 6.96967 6.28033C6.67678 5.98744 6.67678 5.51256 6.96967 5.21967L11.4697 0.71967Z" fill="black"/>
</svg>
