<svg width="144" height="54" viewBox="0 0 144 54" fill="none" xmlns="http://www.w3.org/2000/svg">
<path d="M134.795 7.48145C139.913 7.48145 143.731 11.497 143.731 18.1109C143.731 24.7248 139.913 28.7403 134.795 28.7403C131.645 28.7403 129.677 27.2443 128.614 25.7483H128.535V34.9999H124.362V8.0326H128.535V10.3947H128.614C129.677 8.97744 131.645 7.48145 134.795 7.48145ZM134.007 25.3547C137.629 25.3547 139.558 22.0477 139.558 18.1109C139.558 14.1741 137.629 10.8671 134.007 10.8671C130.661 10.8671 128.575 13.6229 128.575 18.1109C128.575 22.5595 130.661 25.3547 134.007 25.3547Z" fill="black"/>
<path d="M119.012 7.55957C119.72 7.55957 120.232 7.59894 120.823 7.67767V11.5751H120.744C116.768 10.9059 113.579 13.5829 113.579 17.8741V28.1492H109.445V8.03199H113.579V11.8113H113.658C114.72 9.29177 116.374 7.55957 119.012 7.55957Z" fill="black"/>
<path d="M95.586 28.7403C89.2871 28.7403 85.4683 24.3704 85.4683 18.1109C85.4683 11.8513 89.2871 7.48145 95.586 7.48145C101.885 7.48145 105.704 11.8513 105.704 18.1109C105.704 24.3704 101.885 28.7403 95.586 28.7403ZM95.586 25.3547C99.5228 25.3547 101.57 22.2446 101.57 18.1109C101.57 13.9378 99.5228 10.8671 95.586 10.8671C91.6492 10.8671 89.602 13.9378 89.602 18.1109C89.602 22.2446 91.6492 25.3547 95.586 25.3547Z" fill="black"/>
<path d="M78.7818 15.3945C78.6243 13.3473 77.3252 10.8671 73.782 10.8671C69.7271 10.8671 67.9949 14.3315 67.9949 18.1109C67.9949 21.8902 69.6877 25.3547 73.782 25.3547C77.3252 25.3547 78.6243 22.9138 78.7818 20.6698H82.9155C82.6005 25.3153 79.018 28.7403 73.782 28.7403C67.7587 28.7403 63.8612 24.4098 63.8612 18.1109C63.8612 11.812 67.7587 7.48145 73.7427 7.48145C78.9787 7.48145 82.4037 10.8278 82.9155 15.3945H78.7818Z" fill="black"/>
<path d="M53.4885 7.48095C57.3072 7.48095 60.2598 9.64621 60.2598 14.2523V28.1493H56.0868V15.4333C56.0868 12.7169 54.9451 10.9847 52.0712 10.9847C49.0399 10.9847 46.8746 12.9138 46.8746 15.9058V28.1493H42.7409V0.000976562H46.8746V10.6304H46.9533C48.0163 9.05569 50.1028 7.48095 53.4885 7.48095Z" fill="black"/>
<path d="M31.3722 15.985C35.0728 16.8511 39.0884 17.6778 39.0884 22.4808C39.0884 26.3389 35.7814 28.7403 30.8998 28.7403C24.404 28.7403 21.6089 25.709 21.412 21.4572H25.4276C25.6244 23.6224 26.5693 25.4728 30.821 25.4728C33.6949 25.4728 34.9153 24.0555 34.9153 22.7957C34.9153 20.2761 32.5139 20.0793 29.5613 19.3707C26.3724 18.6227 22.0419 17.9928 22.0419 13.4261C22.0419 10.1191 24.9552 7.48145 29.9943 7.48145C35.4665 7.48145 38.0648 10.4341 38.3404 13.9378H34.3248C34.0492 12.3631 33.2619 10.749 30.0337 10.749C27.5535 10.749 26.2149 11.6939 26.2149 13.1111C26.2149 15.1583 28.4589 15.3157 31.3722 15.985Z" fill="black"/>
<path d="M13.3066 13.308C13.3066 11.8513 12.4405 10.749 9.68475 10.749C6.37782 10.749 5.1574 11.7726 4.96056 14.3709H0.944992C1.14183 10.5128 3.62204 7.48145 9.68475 7.48145C14.1334 7.48145 17.4403 9.17428 17.4403 14.5284V24.0949C17.4403 25.5121 17.7553 26.2601 19.3694 26.1026V28.0711C18.4245 28.4254 17.7553 28.5041 16.9679 28.5041C14.7633 28.5041 13.7397 27.7167 13.346 25.7483H13.2673C12.0075 27.5199 9.72412 28.7403 6.61403 28.7403C2.51972 28.7403 0.000152588 26.3782 0.000152588 22.9926C0.000152588 18.5833 3.26772 17.2054 8.30686 16.2212C11.417 15.6307 13.3066 15.237 13.3066 13.308ZM7.5195 25.4728C10.9445 25.4728 13.3066 23.7799 13.3066 20.5124V17.481C12.6374 17.9534 11.0233 18.4258 9.09423 18.8195C5.66919 19.5675 4.17319 20.5517 4.17319 22.5989C4.17319 24.4492 5.2755 25.4728 7.5195 25.4728Z" fill="black"/>
<path d="M36.7135 44.167H35.1315V49.137C35.1315 50.089 35.1455 50.929 36.7135 50.593V50.957C36.4615 51.013 36.2515 51.041 35.9575 51.041C35.2855 51.041 34.7115 50.705 34.7115 49.249V44.167H33.6615V43.803H34.7115V41.479H35.1315V43.803H36.7135V44.167ZM41.144 50.789C42.81 50.789 43.482 49.613 43.65 48.843H44.07C43.762 50.159 42.824 51.153 41.144 51.153C39.142 51.153 37.882 49.669 37.882 47.429C37.882 45.091 39.198 43.705 41.13 43.705C43.216 43.705 44.168 45.259 44.168 47.359H38.302V47.443C38.302 49.277 39.254 50.789 41.144 50.789ZM41.13 44.069C39.352 44.069 38.344 45.469 38.302 46.995H43.748C43.748 45.553 42.936 44.069 41.13 44.069ZM51.3009 46.155C51.2449 45.329 50.4329 44.069 48.8089 44.069C46.9189 44.069 45.8969 45.665 45.8969 47.429C45.8969 49.193 46.9189 50.789 48.8089 50.789C50.4469 50.789 51.2449 49.543 51.3009 48.647H51.7209C51.6229 49.991 50.4749 51.153 48.8089 51.153C46.8349 51.153 45.4769 49.669 45.4769 47.429C45.4769 45.189 46.8349 43.705 48.8089 43.705C50.4749 43.705 51.5669 44.839 51.7209 46.155H51.3009ZM56.5183 43.705C57.6383 43.705 58.6743 44.433 58.6743 45.847V50.999H58.2543V46.127C58.2543 45.063 57.9043 44.069 56.3223 44.069C54.7263 44.069 53.7883 45.273 53.7883 46.043V50.999H53.3683V40.989H53.7883V45.105H53.8163C54.2643 44.419 55.0063 43.705 56.5183 43.705ZM63.8664 43.705C64.9864 43.705 66.0224 44.433 66.0224 45.847V50.999H65.6024V46.127C65.6024 45.063 65.2524 44.069 63.6704 44.069C62.0744 44.069 61.1364 45.273 61.1364 46.043V50.999H60.7164V43.803H61.1364V45.105H61.1644C61.6124 44.419 62.3544 43.705 63.8664 43.705ZM70.9908 51.153C68.9468 51.153 67.7008 49.655 67.7008 47.429C67.7008 45.203 68.9468 43.705 70.9908 43.705C73.0348 43.705 74.2808 45.203 74.2808 47.429C74.2808 49.655 73.0348 51.153 70.9908 51.153ZM70.9908 50.789C72.8248 50.789 73.8608 49.375 73.8608 47.429C73.8608 45.483 72.8248 44.069 70.9908 44.069C69.1568 44.069 68.1208 45.483 68.1208 47.429C68.1208 49.375 69.1568 50.789 70.9908 50.789ZM76.0438 40.989H76.4638V50.999H76.0438V40.989ZM81.5047 51.153C79.4607 51.153 78.2147 49.655 78.2147 47.429C78.2147 45.203 79.4607 43.705 81.5047 43.705C83.5487 43.705 84.7947 45.203 84.7947 47.429C84.7947 49.655 83.5487 51.153 81.5047 51.153ZM81.5047 50.789C83.3387 50.789 84.3747 49.375 84.3747 47.429C84.3747 45.483 83.3387 44.069 81.5047 44.069C79.6707 44.069 78.6347 45.483 78.6347 47.429C78.6347 49.375 79.6707 50.789 81.5047 50.789ZM91.9057 43.803H92.3257V50.607C92.3257 52.511 91.1497 53.393 89.3017 53.393C87.4817 53.393 86.4457 52.441 86.3337 51.363H86.7537C86.9077 52.217 87.6777 53.029 89.3017 53.029C90.8697 53.029 91.9057 52.259 91.9057 50.593V48.843H91.8777C91.4717 49.879 90.4357 50.593 89.1757 50.593C87.6077 50.593 86.1377 49.501 86.1377 47.149C86.1377 44.797 87.6077 43.705 89.1757 43.705C90.4357 43.705 91.4577 44.391 91.8777 45.497H91.9057V43.803ZM89.2737 50.229C90.5197 50.229 91.9057 49.249 91.9057 47.149C91.9057 45.049 90.5197 44.069 89.2737 44.069C87.8037 44.069 86.5577 45.049 86.5577 47.149C86.5577 49.249 87.8037 50.229 89.2737 50.229ZM94.789 42.081C94.635 42.081 94.439 41.955 94.439 41.745C94.439 41.521 94.635 41.409 94.789 41.409C94.957 41.409 95.139 41.521 95.139 41.745C95.139 41.955 94.957 42.081 94.789 42.081ZM94.579 43.803H94.999V50.999H94.579V43.803ZM100.132 50.789C101.798 50.789 102.47 49.613 102.638 48.843H103.058C102.75 50.159 101.812 51.153 100.132 51.153C98.1303 51.153 96.8703 49.669 96.8703 47.429C96.8703 45.091 98.1863 43.705 100.118 43.705C102.204 43.705 103.156 45.259 103.156 47.359H97.2903V47.443C97.2903 49.277 98.2423 50.789 100.132 50.789ZM100.118 44.069C98.3403 44.069 97.3323 45.469 97.2903 46.995H102.736C102.736 45.553 101.924 44.069 100.118 44.069ZM107.461 47.023C109.001 47.415 109.995 47.751 109.995 49.123C109.995 50.327 108.987 51.153 107.447 51.153C105.403 51.153 104.451 50.117 104.381 48.759H104.801C104.871 49.935 105.767 50.789 107.447 50.789C108.609 50.789 109.575 50.103 109.575 49.193C109.575 47.835 108.413 47.695 107.111 47.345C105.655 46.953 104.633 46.701 104.633 45.497C104.633 44.419 105.571 43.705 107.111 43.705C108.875 43.705 109.589 44.727 109.743 45.721H109.323C109.169 44.909 108.539 44.069 107.111 44.069C106.103 44.069 105.053 44.489 105.053 45.497C105.053 46.463 106.145 46.687 107.461 47.023Z" fill="black"/>
</svg>
