<svg width="172" height="62" viewBox="0 0 172 62" fill="none" xmlns="http://www.w3.org/2000/svg">
<rect width="171" height="62" transform="translate(0.731323)" fill="black"/>
<path d="M49.7707 28.62C49.5107 27.18 48.5707 25.44 45.9307 25.44C42.8507 25.44 41.6307 28.02 41.6307 30.84C41.6307 33.68 42.8507 36.26 45.9307 36.26C48.5907 36.26 49.6107 34.52 49.7707 32.78H52.1507C51.8307 36 49.6307 38.3 45.9907 38.3C41.8707 38.3 39.2707 35.16 39.2707 30.84C39.2707 26.54 41.8707 23.4 45.9907 23.4C49.6107 23.4 51.8107 25.7 52.1507 28.62H49.7707ZM53.0692 23.7H55.5892L59.2292 35.4H59.2492L62.8892 23.7H65.4092L60.5292 38H57.9492L53.0692 23.7ZM81.7329 28.62C81.4729 27.18 80.5329 25.44 77.8929 25.44C74.8129 25.44 73.5929 28.02 73.5929 30.84C73.5929 33.68 74.8129 36.26 77.8929 36.26C80.5529 36.26 81.5729 34.52 81.7329 32.78H84.1129C83.7929 36 81.5929 38.3 77.9529 38.3C73.8329 38.3 71.2329 35.16 71.2329 30.84C71.2329 26.54 73.8329 23.4 77.9529 23.4C81.5729 23.4 83.7729 25.7 84.1129 28.62H81.7329ZM90.8416 36.58C92.5816 36.58 93.2816 35.5 93.4616 34.88H95.5616C95.0416 36.82 93.5216 38.3 90.9016 38.3C87.7216 38.3 85.7816 36.1 85.7816 32.9C85.7816 29.58 87.7216 27.5 90.8016 27.5C94.1016 27.5 95.7216 29.8 95.7216 33.44H87.8816C87.8816 35.16 88.9816 36.58 90.8416 36.58ZM90.8016 29.16C89.1016 29.16 87.8816 30.3 87.8816 31.88H93.6216C93.6216 30.3 92.5016 29.16 90.8016 29.16ZM103.27 27.5C105.17 27.5 106.67 28.6 106.67 30.94V38H104.55V31.54C104.55 30.16 103.97 29.28 102.53 29.28C100.91 29.28 99.87 30.26 99.87 31.78V38H97.77V27.78H99.87V29.1H99.91C100.45 28.3 101.51 27.5 103.27 27.5ZM113.883 29.5H111.963V35.04C111.963 36.2 112.523 36.34 113.883 36.26V37.98C113.463 38.08 113.003 38.14 112.443 38.14C110.763 38.14 109.843 37.38 109.843 35.22V29.5H108.363V27.78H109.843V24.56H111.963V27.78H113.883V29.5ZM120.878 27.54C121.238 27.54 121.498 27.56 121.798 27.6V29.58H121.758C119.738 29.24 118.118 30.6 118.118 32.78V38H116.018V27.78H118.118V29.7H118.158C118.698 28.42 119.538 27.54 120.878 27.54ZM127.944 36.58C129.684 36.58 130.384 35.5 130.564 34.88H132.664C132.144 36.82 130.624 38.3 128.004 38.3C124.824 38.3 122.884 36.1 122.884 32.9C122.884 29.58 124.824 27.5 127.904 27.5C131.204 27.5 132.824 29.8 132.824 33.44H124.984C124.984 35.16 126.084 36.58 127.944 36.58ZM127.904 29.16C126.204 29.16 124.984 30.3 124.984 31.88H130.724C130.724 30.3 129.604 29.16 127.904 29.16Z" fill="#66FF00"/>
</svg>
