<svg width="218" height="169" viewBox="0 0 218 169" fill="none" xmlns="http://www.w3.org/2000/svg">
<rect x="0.5" y="0.5" width="217" height="168" fill="white"/>
<rect x="0.5" y="0.5" width="217" height="168" stroke="#ECECEC"/>
<circle cx="61.4741" cy="57.0014" r="37.5259" transform="rotate(-180 61.4741 57.0014)" fill="#66FF00"/>
<circle cx="64.0313" cy="69.627" r="22.5156" transform="rotate(-180 64.0313 69.627)" fill="black"/>
<circle cx="4.63244" cy="4.63244" r="4.63244" transform="matrix(0.965926 0.258819 0.258819 -0.965926 38.5154 80.9902)" fill="white"/>
<circle cx="37.5259" cy="37.5259" r="37.5259" transform="matrix(1 -8.74228e-08 -8.74228e-08 -1 119 94.5273)" fill="#66FF00"/>
<circle cx="22.5156" cy="22.5156" r="22.5156" transform="matrix(1 -8.74228e-08 -8.74228e-08 -1 131.453 92.1426)" fill="black"/>
<circle cx="173.811" cy="77.7146" r="4.63244" transform="rotate(165 173.811 77.7146)" fill="white"/>
<rect width="177" height="29" transform="translate(20.5 120.527)" fill="#F7F7F7"/>
<path d="M32.3152 130.8V133.711H31.5993V130.8H32.3152ZM34.3137 130.8V133.711H33.5978V130.8H34.3137ZM43.2157 130.8V139.527H42.4402L37.2839 132.219H37.2157V139.527H36.4189V130.8H37.1902L42.3635 138.117H42.4316V130.8H43.2157ZM47.9224 139.664C47.3571 139.664 46.8571 139.52 46.4224 139.233C45.9906 138.946 45.6525 138.55 45.4082 138.044C45.1639 137.536 45.0417 136.949 45.0417 136.284C45.0417 135.614 45.1639 135.025 45.4082 134.516C45.6525 134.005 45.9906 133.607 46.4224 133.323C46.8571 133.036 47.3571 132.892 47.9224 132.892C48.4877 132.892 48.9863 133.036 49.4181 133.323C49.85 133.61 50.188 134.007 50.4324 134.516C50.6795 135.025 50.8031 135.614 50.8031 136.284C50.8031 136.949 50.6809 137.536 50.4366 138.044C50.1923 138.55 49.8528 138.946 49.4181 139.233C48.9863 139.52 48.4877 139.664 47.9224 139.664ZM47.9224 138.969C48.377 138.969 48.7619 138.847 49.0772 138.603C49.3926 138.358 49.6312 138.033 49.7931 137.627C49.9579 137.221 50.0403 136.773 50.0403 136.284C50.0403 135.796 49.9579 135.347 49.7931 134.938C49.6312 134.529 49.3926 134.201 49.0772 133.953C48.7619 133.706 48.377 133.583 47.9224 133.583C47.4707 133.583 47.0858 133.706 46.7676 133.953C46.4522 134.201 46.2122 134.529 46.0474 134.938C45.8855 135.347 45.8045 135.796 45.8045 136.284C45.8045 136.773 45.8855 137.221 46.0474 137.627C46.2122 138.033 46.4522 138.358 46.7676 138.603C47.0829 138.847 47.4679 138.969 47.9224 138.969ZM55.0463 132.982V133.642H51.9228V132.982H55.0463ZM52.8986 131.414H53.6614V137.819C53.6614 138.091 53.7083 138.306 53.802 138.462C53.8958 138.615 54.0179 138.725 54.1685 138.79C54.3191 138.853 54.4796 138.884 54.65 138.884C54.7495 138.884 54.8347 138.878 54.9057 138.867C54.9767 138.853 55.0392 138.838 55.0932 138.824L55.2551 139.51C55.1813 139.539 55.0904 139.564 54.9824 139.587C54.8745 139.613 54.7409 139.625 54.5819 139.625C54.3034 139.625 54.035 139.564 53.7765 139.442C53.5208 139.32 53.3105 139.138 53.1458 138.897C52.981 138.655 52.8986 138.355 52.8986 137.998V131.414ZM57.6681 135.436V139.527H56.9096V130.8H57.6681V134.009H57.7363C57.8897 133.671 58.127 133.401 58.448 133.199C58.7718 132.998 59.1809 132.897 59.6752 132.897C60.1184 132.897 60.5076 132.988 60.8429 133.169C61.1781 133.351 61.4395 133.62 61.627 133.975C61.8145 134.33 61.9082 134.767 61.9082 135.287V139.527H61.1454V135.334C61.1454 134.794 60.9949 134.37 60.6937 134.06C60.3954 133.748 59.992 133.591 59.4835 133.591C59.1341 133.591 58.823 133.665 58.5502 133.813C58.2775 133.961 58.0616 134.174 57.9025 134.452C57.7463 134.728 57.6681 135.056 57.6681 135.436ZM63.9142 139.527V132.982H64.677V139.527H63.9142ZM64.302 131.857C64.1458 131.857 64.0123 131.804 63.9015 131.699C63.7907 131.591 63.7353 131.462 63.7353 131.311C63.7353 131.161 63.7907 131.033 63.9015 130.928C64.0123 130.82 64.1458 130.766 64.302 130.766C64.4583 130.766 64.5918 130.82 64.7026 130.928C64.8134 131.033 64.8688 131.161 64.8688 131.311C64.8688 131.462 64.8134 131.591 64.7026 131.699C64.5918 131.804 64.4583 131.857 64.302 131.857ZM67.4416 135.436V139.527H66.6831V132.982H67.4203V134.009H67.4885C67.6419 133.674 67.8805 133.405 68.2044 133.203C68.5311 132.999 68.9345 132.897 69.4146 132.897C69.8549 132.897 70.2413 132.989 70.5737 133.174C70.9089 133.355 71.1689 133.624 71.3535 133.979C71.541 134.334 71.6348 134.77 71.6348 135.287V139.527H70.8762V135.334C70.8762 134.797 70.7257 134.373 70.4245 134.06C70.1262 133.748 69.7257 133.591 69.2228 133.591C68.8791 133.591 68.5737 133.665 68.3066 133.813C68.0396 133.961 67.8279 134.174 67.6717 134.452C67.5183 134.728 67.4416 135.056 67.4416 135.436ZM76.1294 142.118C75.6834 142.118 75.2928 142.06 74.9576 141.944C74.6223 141.83 74.3397 141.674 74.1096 141.475C73.8794 141.276 73.7005 141.053 73.5726 140.806L74.1948 140.397C74.2885 140.561 74.4135 140.723 74.5698 140.882C74.7289 141.042 74.9348 141.174 75.1877 141.279C75.4434 141.384 75.7573 141.436 76.1294 141.436C76.709 141.436 77.1763 141.292 77.5314 141.002C77.8894 140.712 78.0684 140.262 78.0684 139.651V138.176H78.0002C77.9121 138.375 77.7857 138.574 77.6209 138.773C77.4561 138.969 77.2402 139.132 76.9732 139.263C76.709 139.394 76.3809 139.459 75.9888 139.459C75.4661 139.459 75.0016 139.33 74.5953 139.071C74.1919 138.813 73.8738 138.444 73.6408 137.963C73.4107 137.48 73.2956 136.905 73.2956 136.238C73.2956 135.576 73.4078 134.993 73.6323 134.49C73.8596 133.988 74.1763 133.596 74.5826 133.314C74.9888 133.033 75.4618 132.892 76.0016 132.892C76.4022 132.892 76.7346 132.963 76.9988 133.105C77.263 133.245 77.4746 133.418 77.6337 133.625C77.7956 133.833 77.9221 134.034 78.013 134.23H78.0897V132.982H78.8311V139.698C78.8311 140.252 78.7132 140.708 78.4775 141.066C78.2417 141.424 77.9206 141.688 77.5144 141.858C77.1081 142.032 76.6465 142.118 76.1294 142.118ZM76.0783 138.765C76.4988 138.765 76.8581 138.664 77.1564 138.462C77.4547 138.257 77.6834 137.965 77.8425 137.584C78.0016 137.203 78.0811 136.75 78.0811 136.225C78.0811 135.713 78.003 135.26 77.8468 134.865C77.6905 134.468 77.4632 134.155 77.165 133.928C76.8695 133.698 76.5073 133.583 76.0783 133.583C75.6408 133.583 75.2715 133.701 74.9703 133.936C74.6692 134.172 74.4419 134.49 74.2885 134.891C74.1351 135.289 74.0584 135.733 74.0584 136.225C74.0584 136.725 74.1365 137.167 74.2928 137.55C74.449 137.931 74.6777 138.229 74.9789 138.445C75.28 138.658 75.6465 138.765 76.0783 138.765ZM86.7924 132.982V133.642H83.6689V132.982H86.7924ZM84.6447 131.414H85.4075V137.819C85.4075 138.091 85.4544 138.306 85.5481 138.462C85.6419 138.615 85.764 138.725 85.9146 138.79C86.0652 138.853 86.2257 138.884 86.3961 138.884C86.4956 138.884 86.5808 138.878 86.6518 138.867C86.7228 138.853 86.7853 138.838 86.8393 138.824L87.0012 139.51C86.9274 139.539 86.8365 139.564 86.7285 139.587C86.6206 139.613 86.487 139.625 86.3279 139.625C86.0495 139.625 85.7811 139.564 85.5225 139.442C85.2669 139.32 85.0566 139.138 84.8919 138.897C84.7271 138.655 84.6447 138.355 84.6447 137.998V131.414ZM90.9888 139.664C90.4235 139.664 89.9235 139.52 89.4888 139.233C89.057 138.946 88.7189 138.55 88.4746 138.044C88.2303 137.536 88.1081 136.949 88.1081 136.284C88.1081 135.614 88.2303 135.025 88.4746 134.516C88.7189 134.005 89.057 133.607 89.4888 133.323C89.9235 133.036 90.4235 132.892 90.9888 132.892C91.5542 132.892 92.0527 133.036 92.4846 133.323C92.9164 133.61 93.2544 134.007 93.4988 134.516C93.7459 135.025 93.8695 135.614 93.8695 136.284C93.8695 136.949 93.7473 137.536 93.503 138.044C93.2587 138.55 92.9192 138.946 92.4846 139.233C92.0527 139.52 91.5542 139.664 90.9888 139.664ZM90.9888 138.969C91.4434 138.969 91.8283 138.847 92.1436 138.603C92.459 138.358 92.6976 138.033 92.8596 137.627C93.0243 137.221 93.1067 136.773 93.1067 136.284C93.1067 135.796 93.0243 135.347 92.8596 134.938C92.6976 134.529 92.459 134.201 92.1436 133.953C91.8283 133.706 91.4434 133.583 90.9888 133.583C90.5371 133.583 90.1522 133.706 89.834 133.953C89.5186 134.201 89.2786 134.529 89.1138 134.938C88.9519 135.347 88.8709 135.796 88.8709 136.284C88.8709 136.773 88.9519 137.221 89.1138 137.627C89.2786 138.033 89.5186 138.358 89.834 138.603C90.1493 138.847 90.5343 138.969 90.9888 138.969ZM103.806 132.982C103.758 132.496 103.543 132.11 103.162 131.823C102.782 131.536 102.303 131.392 101.726 131.392C101.32 131.392 100.962 131.462 100.653 131.601C100.346 131.74 100.104 131.934 99.9281 132.181C99.7548 132.425 99.6681 132.703 99.6681 133.016C99.6681 133.246 99.7179 133.448 99.8173 133.621C99.9167 133.794 100.05 133.944 100.218 134.069C100.388 134.191 100.576 134.296 100.78 134.384C100.988 134.472 101.197 134.546 101.407 134.605L102.327 134.87C102.606 134.946 102.884 135.044 103.162 135.164C103.441 135.283 103.695 135.434 103.925 135.615C104.158 135.794 104.344 136.015 104.483 136.276C104.626 136.534 104.697 136.846 104.697 137.209C104.697 137.675 104.576 138.094 104.334 138.466C104.093 138.838 103.746 139.134 103.295 139.353C102.843 139.569 102.302 139.676 101.671 139.676C101.077 139.676 100.562 139.578 100.124 139.382C99.6866 139.184 99.3429 138.909 99.0929 138.56C98.8429 138.211 98.7022 137.806 98.671 137.346H99.4892C99.5176 137.689 99.6312 137.98 99.8301 138.219C100.029 138.458 100.287 138.64 100.606 138.765C100.924 138.887 101.279 138.948 101.671 138.948C102.106 138.948 102.492 138.875 102.83 138.73C103.171 138.583 103.438 138.378 103.631 138.117C103.827 137.853 103.925 137.546 103.925 137.196C103.925 136.901 103.849 136.654 103.695 136.455C103.542 136.253 103.327 136.084 103.052 135.948C102.779 135.811 102.462 135.691 102.101 135.586L101.057 135.279C100.373 135.074 99.8414 134.792 99.4636 134.431C99.0858 134.07 98.8968 133.61 98.8968 133.05C98.8968 132.581 99.0218 132.169 99.2718 131.814C99.5247 131.456 99.8656 131.178 100.295 130.979C100.726 130.777 101.211 130.676 101.748 130.676C102.29 130.676 102.77 130.776 103.188 130.975C103.606 131.174 103.937 131.448 104.181 131.797C104.428 132.144 104.56 132.539 104.577 132.982H103.806ZM109.103 139.664C108.492 139.664 107.964 139.522 107.518 139.238C107.072 138.951 106.726 138.554 106.482 138.049C106.241 137.54 106.12 136.955 106.12 136.293C106.12 135.634 106.241 135.049 106.482 134.537C106.726 134.023 107.063 133.621 107.492 133.331C107.924 133.039 108.422 132.892 108.988 132.892C109.343 132.892 109.685 132.958 110.015 133.088C110.344 133.216 110.64 133.414 110.901 133.681C111.165 133.945 111.374 134.279 111.528 134.682C111.681 135.083 111.758 135.557 111.758 136.105V136.48H106.644V135.811H110.982C110.982 135.391 110.897 135.013 110.726 134.678C110.559 134.34 110.324 134.073 110.023 133.877C109.725 133.681 109.38 133.583 108.988 133.583C108.573 133.583 108.208 133.694 107.893 133.915C107.577 134.137 107.33 134.429 107.151 134.793C106.975 135.157 106.885 135.554 106.883 135.986V136.387C106.883 136.907 106.972 137.361 107.151 137.75C107.333 138.137 107.59 138.436 107.922 138.65C108.255 138.863 108.648 138.969 109.103 138.969C109.412 138.969 109.684 138.921 109.917 138.824C110.153 138.728 110.35 138.598 110.509 138.436C110.671 138.272 110.793 138.091 110.876 137.895L111.596 138.13C111.496 138.405 111.333 138.659 111.106 138.892C110.881 139.125 110.6 139.313 110.262 139.455C109.927 139.594 109.54 139.664 109.103 139.664ZM116.075 139.664C115.465 139.664 114.936 139.522 114.49 139.238C114.044 138.951 113.699 138.554 113.455 138.049C113.213 137.54 113.093 136.955 113.093 136.293C113.093 135.634 113.213 135.049 113.455 134.537C113.699 134.023 114.036 133.621 114.465 133.331C114.896 133.039 115.395 132.892 115.96 132.892C116.316 132.892 116.658 132.958 116.987 133.088C117.317 133.216 117.612 133.414 117.874 133.681C118.138 133.945 118.347 134.279 118.5 134.682C118.654 135.083 118.73 135.557 118.73 136.105V136.48H113.617V135.811H117.955C117.955 135.391 117.869 135.013 117.699 134.678C117.531 134.34 117.297 134.073 116.996 133.877C116.698 133.681 116.352 133.583 115.96 133.583C115.546 133.583 115.181 133.694 114.865 133.915C114.55 134.137 114.303 134.429 114.124 134.793C113.948 135.157 113.858 135.554 113.855 135.986V136.387C113.855 136.907 113.945 137.361 114.124 137.75C114.306 138.137 114.563 138.436 114.895 138.65C115.227 138.863 115.621 138.969 116.075 138.969C116.385 138.969 116.656 138.921 116.889 138.824C117.125 138.728 117.323 138.598 117.482 138.436C117.644 138.272 117.766 138.091 117.848 137.895L118.568 138.13C118.469 138.405 118.306 138.659 118.078 138.892C117.854 139.125 117.573 139.313 117.235 139.455C116.899 139.594 116.513 139.664 116.075 139.664ZM123.934 139.527V130.8H124.731V134.801H129.683V130.8H130.48V139.527H129.683V135.517H124.731V139.527H123.934ZM135.282 139.664C134.672 139.664 134.143 139.522 133.697 139.238C133.251 138.951 132.906 138.554 132.662 138.049C132.42 137.54 132.3 136.955 132.3 136.293C132.3 135.634 132.42 135.049 132.662 134.537C132.906 134.023 133.243 133.621 133.672 133.331C134.104 133.039 134.602 132.892 135.167 132.892C135.523 132.892 135.865 132.958 136.194 133.088C136.524 133.216 136.819 133.414 137.081 133.681C137.345 133.945 137.554 134.279 137.707 134.682C137.861 135.083 137.937 135.557 137.937 136.105V136.48H132.824V135.811H137.162C137.162 135.391 137.077 135.013 136.906 134.678C136.738 134.34 136.504 134.073 136.203 133.877C135.905 133.681 135.559 133.583 135.167 133.583C134.753 133.583 134.388 133.694 134.072 133.915C133.757 134.137 133.51 134.429 133.331 134.793C133.155 135.157 133.065 135.554 133.062 135.986V136.387C133.062 136.907 133.152 137.361 133.331 137.75C133.513 138.137 133.77 138.436 134.102 138.65C134.434 138.863 134.828 138.969 135.282 138.969C135.592 138.969 135.863 138.921 136.096 138.824C136.332 138.728 136.53 138.598 136.689 138.436C136.851 138.272 136.973 138.091 137.055 137.895L137.775 138.13C137.676 138.405 137.513 138.659 137.285 138.892C137.061 139.125 136.78 139.313 136.442 139.455C136.106 139.594 135.72 139.664 135.282 139.664ZM139.609 139.527V132.982H140.346V133.988H140.401C140.532 133.658 140.759 133.392 141.083 133.191C141.41 132.986 141.779 132.884 142.191 132.884C142.254 132.884 142.323 132.885 142.4 132.888C142.477 132.891 142.541 132.894 142.592 132.897V133.668C142.558 133.662 142.498 133.654 142.413 133.642C142.328 133.631 142.235 133.625 142.136 133.625C141.795 133.625 141.491 133.698 141.224 133.843C140.96 133.985 140.751 134.182 140.597 134.435C140.444 134.688 140.367 134.976 140.367 135.3V139.527H139.609ZM146.333 139.664C145.722 139.664 145.194 139.522 144.748 139.238C144.302 138.951 143.957 138.554 143.713 138.049C143.471 137.54 143.35 136.955 143.35 136.293C143.35 135.634 143.471 135.049 143.713 134.537C143.957 134.023 144.294 133.621 144.722 133.331C145.154 133.039 145.653 132.892 146.218 132.892C146.573 132.892 146.916 132.958 147.245 133.088C147.575 133.216 147.87 133.414 148.132 133.681C148.396 133.945 148.605 134.279 148.758 134.682C148.911 135.083 148.988 135.557 148.988 136.105V136.48H143.874V135.811H148.213C148.213 135.391 148.127 135.013 147.957 134.678C147.789 134.34 147.555 134.073 147.254 133.877C146.955 133.681 146.61 133.583 146.218 133.583C145.803 133.583 145.438 133.694 145.123 133.915C144.808 134.137 144.561 134.429 144.382 134.793C144.205 135.157 144.116 135.554 144.113 135.986V136.387C144.113 136.907 144.203 137.361 144.382 137.75C144.563 138.137 144.82 138.436 145.153 138.65C145.485 138.863 145.879 138.969 146.333 138.969C146.643 138.969 146.914 138.921 147.147 138.824C147.383 138.728 147.58 138.598 147.74 138.436C147.901 138.272 148.024 138.091 148.106 137.895L148.826 138.13C148.727 138.405 148.563 138.659 148.336 138.892C148.112 139.125 147.83 139.313 147.492 139.455C147.157 139.594 146.771 139.664 146.333 139.664ZM154.35 135.846C154.35 134.823 154.479 133.857 154.738 132.948C154.996 132.039 155.367 131.186 155.85 130.391H156.54C156.333 130.726 156.143 131.105 155.969 131.529C155.799 131.952 155.651 132.404 155.526 132.884C155.401 133.364 155.305 133.855 155.236 134.358C155.168 134.858 155.134 135.354 155.134 135.846C155.134 136.502 155.194 137.164 155.313 137.831C155.432 138.499 155.597 139.132 155.807 139.732C156.02 140.331 156.265 140.854 156.54 141.3H155.85C155.367 140.502 154.996 139.648 154.738 138.739C154.479 137.83 154.35 136.865 154.35 135.846ZM157.534 130.8H158.455L161.041 134.942H161.118L163.705 130.8H164.625L161.476 135.748V139.527H160.683V135.748L157.534 130.8ZM167.685 139.664C167.074 139.664 166.546 139.522 166.1 139.238C165.654 138.951 165.308 138.554 165.064 138.049C164.823 137.54 164.702 136.955 164.702 136.293C164.702 135.634 164.823 135.049 165.064 134.537C165.308 134.023 165.645 133.621 166.074 133.331C166.506 133.039 167.004 132.892 167.57 132.892C167.925 132.892 168.267 132.958 168.597 133.088C168.926 133.216 169.222 133.414 169.483 133.681C169.747 133.945 169.956 134.279 170.11 134.682C170.263 135.083 170.34 135.557 170.34 136.105V136.48H165.226V135.811H169.564C169.564 135.391 169.479 135.013 169.308 134.678C169.141 134.34 168.906 134.073 168.605 133.877C168.307 133.681 167.962 133.583 167.57 133.583C167.155 133.583 166.79 133.694 166.475 133.915C166.159 134.137 165.912 134.429 165.733 134.793C165.557 135.157 165.468 135.554 165.465 135.986V136.387C165.465 136.907 165.554 137.361 165.733 137.75C165.915 138.137 166.172 138.436 166.504 138.65C166.837 138.863 167.23 138.969 167.685 138.969C167.994 138.969 168.266 138.921 168.499 138.824C168.735 138.728 168.932 138.598 169.091 138.436C169.253 138.272 169.375 138.091 169.458 137.895L170.178 138.13C170.078 138.405 169.915 138.659 169.688 138.892C169.463 139.125 169.182 139.313 168.844 139.455C168.509 139.594 168.122 139.664 167.685 139.664ZM174.589 132.982V133.642H171.466V132.982H174.589ZM172.442 131.414H173.204V137.819C173.204 138.091 173.251 138.306 173.345 138.462C173.439 138.615 173.561 138.725 173.711 138.79C173.862 138.853 174.023 138.884 174.193 138.884C174.292 138.884 174.378 138.878 174.449 138.867C174.52 138.853 174.582 138.838 174.636 138.824L174.798 139.51C174.724 139.539 174.633 139.564 174.525 139.587C174.417 139.613 174.284 139.625 174.125 139.625C173.846 139.625 173.578 139.564 173.319 139.442C173.064 139.32 172.854 139.138 172.689 138.897C172.524 138.655 172.442 138.355 172.442 137.998V131.414ZM178.153 135.846C178.153 136.868 178.024 137.834 177.765 138.743C177.507 139.652 177.136 140.505 176.653 141.3H175.963C176.17 140.965 176.359 140.586 176.529 140.162C176.703 139.739 176.852 139.287 176.977 138.807C177.102 138.327 177.198 137.836 177.267 137.333C177.335 136.83 177.369 136.334 177.369 135.846C177.369 135.189 177.309 134.527 177.19 133.86C177.07 133.192 176.904 132.559 176.691 131.959C176.481 131.36 176.238 130.837 175.963 130.391H176.653C177.136 131.189 177.507 132.043 177.765 132.952C178.024 133.861 178.153 134.826 178.153 135.846ZM181.537 130.8L181.482 137.026H180.732L180.677 130.8H181.537ZM181.107 139.591C180.939 139.591 180.795 139.532 180.672 139.412C180.553 139.29 180.493 139.145 180.493 138.978C180.493 138.807 180.553 138.662 180.672 138.543C180.795 138.424 180.939 138.364 181.107 138.364C181.275 138.364 181.418 138.424 181.537 138.543C181.66 138.662 181.721 138.807 181.721 138.978C181.721 139.088 181.692 139.191 181.635 139.284C181.581 139.378 181.508 139.453 181.414 139.51C181.323 139.564 181.221 139.591 181.107 139.591ZM184.389 130.8V133.711H183.673V130.8H184.389ZM186.388 130.8V133.711H185.672V130.8H186.388Z" fill="#363636"/>
</svg>
