<svg width="39" height="33" viewBox="0 0 39 33" fill="none" xmlns="http://www.w3.org/2000/svg">
<path d="M29.5385 32.5862C29.2759 32.5862 29.0133 32.5543 28.7508 32.4905C28.4882 32.4267 28.2421 32.3151 28.0123 32.1556L22.1046 28.806C21.6451 28.5508 21.2923 28.2079 21.0462 27.7772C20.8 27.3466 20.6769 26.876 20.6769 26.3656V19.6187C20.6769 19.1083 20.8 18.6378 21.0462 18.2071C21.2923 17.7765 21.6451 17.4335 22.1046 17.1783L28.0123 13.8288C28.2421 13.6693 28.4882 13.5576 28.7508 13.4938C29.0133 13.43 29.2759 13.3981 29.5385 13.3981C29.801 13.3981 30.0554 13.438 30.3015 13.5178C30.5477 13.5975 30.7856 13.7012 31.0154 13.8288L36.9231 17.1783C37.3826 17.4335 37.7436 17.7765 38.0062 18.2071C38.2687 18.6378 38.4 19.1083 38.4 19.6187V26.3656C38.4 26.876 38.2687 27.3466 38.0062 27.7772C37.7436 28.2079 37.3826 28.5508 36.9231 28.806L31.0154 32.1556C30.7856 32.2832 30.5477 32.3868 30.3015 32.4666C30.0554 32.5463 29.801 32.5862 29.5385 32.5862ZM15.7538 15.3122C13.5877 15.3122 11.7333 14.5625 10.1908 13.0632C8.64821 11.5639 7.87692 9.76151 7.87692 7.65608C7.87692 5.55066 8.64821 3.74829 10.1908 2.24897C11.7333 0.749658 13.5877 0 15.7538 0C17.92 0 19.7744 0.749658 21.3169 2.24897C22.8595 3.74829 23.6308 5.55066 23.6308 7.65608C23.6308 9.76151 22.8595 11.5639 21.3169 13.0632C19.7744 14.5625 17.92 15.3122 15.7538 15.3122ZM0 30.6243V25.2651C0 24.2124 0.278974 23.2235 0.836923 22.2983C1.39487 21.3732 2.16615 20.6714 3.15077 20.1929C4.82462 19.3635 6.71179 18.6617 8.81231 18.0875C10.9128 17.5133 13.2267 17.2262 15.7538 17.2262H16.4431C16.64 17.2262 16.8369 17.2581 17.0338 17.3219C16.7713 17.8961 16.5497 18.4942 16.3692 19.1163C16.1887 19.7383 16.0492 20.3843 15.9508 21.0542H15.7538C13.4236 21.0542 11.3313 21.3413 9.47692 21.9155C7.62256 22.4897 6.10462 23.064 4.92308 23.6382C4.62769 23.7977 4.38974 24.021 4.20923 24.3081C4.02872 24.5952 3.93846 24.9142 3.93846 25.2651V26.7963H16.3446C16.5415 27.4662 16.8041 28.1281 17.1323 28.7821C17.4605 29.436 17.8215 30.0501 18.2154 30.6243H0ZM15.7538 11.4841C16.8369 11.4841 17.7641 11.1093 18.5354 10.3596C19.3067 9.60998 19.6923 8.7088 19.6923 7.65608C19.6923 6.60337 19.3067 5.70219 18.5354 4.95253C17.7641 4.20287 16.8369 3.82804 15.7538 3.82804C14.6708 3.82804 13.7436 4.20287 12.9723 4.95253C12.201 5.70219 11.8154 6.60337 11.8154 7.65608C11.8154 8.7088 12.201 9.60998 12.9723 10.3596C13.7436 11.1093 14.6708 11.4841 15.7538 11.4841ZM24.9108 18.8531L29.5385 21.4849L34.1662 18.8531L29.5385 16.2692L24.9108 18.8531ZM31.0154 28.806L35.4462 26.3178V21.0542L31.0154 23.5903V28.806ZM23.6308 26.3178L28.0615 28.8539V23.6382L23.6308 21.1021V26.3178Z" fill="#E42527"/>
</svg>
