<svg width="36" height="36" viewBox="0 0 36 36" fill="none" xmlns="http://www.w3.org/2000/svg">
<path d="M3.56571 35.0847C2.58514 35.0847 1.74571 34.703 1.04743 33.9396C0.349143 33.1762 0 32.2585 0 31.1864V3.89831C0 2.82627 0.349143 1.90855 1.04743 1.14513C1.74571 0.381709 2.58514 0 3.56571 0H28.5257C29.5063 0 30.3457 0.381709 31.044 1.14513C31.7423 1.90855 32.0914 2.82627 32.0914 3.89831V7.79661H35.6571V11.6949H32.0914V15.5932H35.6571V19.4915H32.0914V23.3898H35.6571V27.2881H32.0914V31.1864C32.0914 32.2585 31.7423 33.1762 31.044 33.9396C30.3457 34.703 29.5063 35.0847 28.5257 35.0847H3.56571ZM3.56571 31.1864H28.5257V3.89831H3.56571V31.1864ZM7.13143 27.2881H16.0457V19.4915H7.13143V27.2881ZM17.8286 13.6441H24.96V7.79661H17.8286V13.6441ZM7.13143 17.5424H16.0457V7.79661H7.13143V17.5424ZM17.8286 27.2881H24.96V15.5932H17.8286V27.2881Z" fill="#F8B11C"/>
</svg>
