<svg width="420" height="345" viewBox="0 0 420 345" fill="none" xmlns="http://www.w3.org/2000/svg">
<g clip-path="url(#clip0_375_302)">
<path d="M420 334.452C420.128 347.893 335.441 349.125 333.828 334.453C333.699 321.013 418.387 319.781 420 334.452Z" fill="#E6E6E6"/>
<path d="M353.741 287.792L347.447 291.225L351.453 304.386L357.746 304.959L361.179 297.52L353.741 287.792Z" fill="#9F616A"/>
<path d="M373.195 314.115V320.409L382.921 319.837L382.786 314.653L373.195 314.115Z" fill="#9F616A"/>
<path d="M351.453 212.255L354.885 255.174L365.757 318.12L382.921 315.831L377.2 266.046L379.489 220.267L351.453 212.255Z" fill="#2F2E41"/>
<path d="M397.226 180.21L356.03 180.782L351.452 212.256L379.488 225.417L386.354 250.596L351.452 287.792L365.184 304.959C365.184 304.959 384.638 278.636 398.942 263.757C413.246 248.879 406.38 203.672 406.38 203.672L397.226 180.21Z" fill="#2F2E41"/>
<path d="M372.623 98.9518C379.574 98.9518 385.21 93.3154 385.21 86.3625C385.21 79.4096 379.574 73.7732 372.623 73.7732C365.671 73.7732 360.035 79.4096 360.035 86.3625C360.035 93.3154 365.671 98.9518 372.623 98.9518Z" fill="#9F616A"/>
<path d="M368.045 94.9462V107.535L376.628 121.269C376.628 121.269 389.787 111.541 386.927 109.252C384.066 106.963 383.494 89.2238 383.494 89.2238L368.045 94.9462Z" fill="#9F616A"/>
<path d="M368.045 105.246L359.463 115.547L362.896 187.076L389.787 186.504L394.365 124.13L388.643 108.108L384.719 102.767L377.772 113.258L368.045 105.246Z" fill="#D0CDE1"/>
<path d="M354.313 142.442L348.019 166.476L354.313 190.51L344.014 204.244L334.86 160.754C334.86 160.754 341.726 125.275 342.298 121.269C342.87 117.264 344.014 116.691 344.014 116.691L348.592 117.264L354.313 142.442Z" fill="#2F2E41"/>
<path d="M400.086 151.598L404.092 159.037L405.236 171.626L402.947 185.932L410.958 199.094L418.968 163.042L410.385 116.691H406.952L400.086 151.598Z" fill="#2F2E41"/>
<path d="M351.452 287.219C351.452 287.219 343.442 289.508 340.581 290.08C337.72 290.653 342.298 301.525 342.298 301.525C342.298 301.525 345.159 316.404 345.731 319.265C346.303 322.126 350.308 331.854 355.458 332.999C360.607 334.143 357.174 312.97 357.174 312.97C357.174 312.97 359.463 306.103 359.463 303.814C359.463 301.525 356.03 302.67 356.03 302.67C346.875 301.525 351.452 287.219 351.452 287.219Z" fill="#2F2E41"/>
<path d="M370.334 331.282C370.906 334.715 369.762 334.715 378.916 335.86C388.071 337.004 385.782 329.565 385.782 329.565C385.4 326.058 384.632 322.604 383.494 319.265C381.777 314.687 372.623 320.409 372.623 320.409C372.623 320.409 369.762 327.848 370.334 331.282Z" fill="#2F2E41"/>
<path d="M383.509 89.6234L383.807 94.7126C383.807 94.7126 387.499 86.3625 388.071 77.7789C388.643 69.1953 378.916 67.4786 373.195 66.9064C367.473 66.3341 357.746 70.3398 357.746 74.9177C357.746 79.4957 368.045 78.3512 372.05 77.2067C376.056 76.0622 377.772 85.7903 377.772 85.7903L380.061 86.3626L383.509 89.6234Z" fill="#2F2E41"/>
<path d="M364.668 109.299L368.045 105.246L377.772 113.258L368.045 120.125L364.668 109.299Z" fill="#D0CDE1"/>
<path d="M388.643 108.108L384.638 102.958L377.772 113.258L386.355 119.552L388.643 108.108Z" fill="#D0CDE1"/>
<path d="M352.597 150.453L354.885 172.199L350.308 185.36L347.447 197.95C347.447 197.95 347.447 209.967 358.891 210.539C370.334 211.111 380.061 174.488 380.061 174.488C380.061 174.488 381.777 182.499 382.921 187.077C384.066 191.655 403.519 209.967 403.519 209.967C403.519 209.967 408.097 209.394 412.102 200.239C416.107 191.083 404.092 182.499 404.092 182.499L400.659 170.482L401.803 155.604L409.813 116.691L386.068 104.388L388.643 137.292L380.061 163.043L367.187 106.105L362.896 109.252L344.586 116.691L352.597 150.453Z" fill="#2F2E41"/>
<path d="M126.472 237.006C125.34 236.997 124.196 236.989 123.072 236.954L123.107 235.821C124.219 235.855 125.357 235.871 126.472 235.872C127.592 235.872 128.734 235.854 129.866 235.817L129.903 236.95C128.758 236.987 127.604 237.006 126.472 237.006ZM116.256 236.527C113.999 236.313 111.72 236.024 109.481 235.667L109.66 234.547C111.875 234.9 114.13 235.187 116.363 235.399L116.256 236.527ZM136.718 236.515L136.61 235.386C138.843 235.173 141.098 234.883 143.312 234.526L143.493 235.646C141.254 236.007 138.975 236.299 136.718 236.515ZM102.775 234.373C100.565 233.871 98.341 233.291 96.1658 232.648L96.4872 231.561C98.6392 232.197 100.839 232.771 103.026 233.266L102.775 234.373ZM150.197 234.344L149.945 233.239C152.137 232.739 154.336 232.163 156.482 231.525L156.805 232.613C154.636 233.257 152.413 233.839 150.197 234.344ZM89.6808 230.502C87.5482 229.719 85.4145 228.856 83.3389 227.937L83.7978 226.901C85.851 227.809 87.9617 228.663 90.0716 229.438L89.6808 230.502ZM163.286 230.458L162.894 229.394C164.991 228.621 167.095 227.768 169.146 226.858L169.606 227.894C167.532 228.814 165.406 229.677 163.286 230.458ZM77.1777 224.969C75.1708 223.922 73.1666 222.792 71.2214 221.613L71.8094 220.643C73.7341 221.811 75.7167 222.927 77.7023 223.964L77.1777 224.969ZM175.75 224.928L175.225 223.923C177.206 222.887 179.184 221.77 181.104 220.603L181.693 221.572C179.752 222.752 177.753 223.88 175.75 224.928ZM65.494 217.882C63.6352 216.585 61.793 215.209 60.018 213.793L60.725 212.906C62.4811 214.307 64.304 215.668 66.1429 216.952L65.494 217.882ZM187.411 217.842L186.761 216.912C188.6 215.627 190.42 214.266 192.172 212.867L192.879 213.753C191.109 215.167 189.269 216.542 187.411 217.842ZM54.8146 209.363C53.1344 207.838 51.4823 206.239 49.9053 204.613L50.7191 203.823C52.2795 205.432 53.9142 207.014 55.577 208.524L54.8146 209.363ZM198.077 209.324L197.314 208.484C198.973 206.978 200.606 205.395 202.169 203.782L202.983 204.571C201.404 206.201 199.753 207.801 198.077 209.324ZM45.309 199.561C43.8377 197.835 42.4032 196.041 41.0449 194.227L41.9526 193.547C43.2965 195.342 44.7157 197.118 46.1715 198.824L45.309 199.561ZM207.578 199.514L206.716 198.778C208.171 197.07 209.591 195.292 210.934 193.495L211.842 194.174C210.484 195.99 209.05 197.787 207.578 199.514ZM37.1304 188.632C35.89 186.732 34.6963 184.771 33.5824 182.801L34.5695 182.243C35.6713 184.191 36.8525 186.133 38.0799 188.012L37.1304 188.632ZM215.758 188.571L214.808 187.952C216.036 186.068 217.217 184.124 218.319 182.171L219.307 182.728C218.193 184.702 216.999 186.668 215.758 188.571ZM30.4162 176.756C29.4296 174.715 28.4975 172.617 27.646 170.521L28.6963 170.094C29.5389 172.168 30.461 174.243 31.4371 176.262L30.4162 176.756ZM222.474 176.667L221.453 176.174C222.429 174.152 223.351 172.071 224.195 169.988L225.246 170.413C224.393 172.519 223.461 174.623 222.474 176.667ZM25.2792 164.113C24.562 161.959 23.9068 159.756 23.3315 157.564L24.4283 157.276C24.9972 159.444 25.6455 161.624 26.355 163.754L25.2792 164.113ZM227.608 163.993L226.532 163.636C227.237 161.508 227.883 159.328 228.451 157.155L229.548 157.442C228.974 159.638 228.321 161.842 227.608 163.993ZM21.8104 150.905C21.3772 148.68 21.0107 146.412 20.7209 144.162L21.8453 144.017C22.1321 146.243 22.4947 148.487 22.9232 150.688L21.8104 150.905ZM231.061 150.78L229.948 150.566C230.374 148.365 230.734 146.12 231.018 143.892L232.143 144.036C231.856 146.288 231.491 148.557 231.061 150.78ZM20.0654 137.364C19.92 135.103 19.845 132.806 19.8425 130.535L20.9764 130.534C20.9789 132.781 21.0531 135.054 21.197 137.29L20.0654 137.364ZM232.791 137.237L231.659 137.165C231.8 134.93 231.872 132.658 231.872 130.41L231.871 130.161H233.005L233.006 130.406C233.006 132.681 232.933 134.978 232.791 137.237ZM21.1812 123.779L20.0496 123.709C20.1902 121.444 20.4053 119.156 20.689 116.908L21.814 117.05C21.5331 119.275 21.3202 121.538 21.1812 123.779ZM231.644 123.407C231.496 121.165 231.275 118.902 230.987 116.681L232.111 116.535C232.403 118.78 232.626 121.067 232.775 123.332L231.644 123.407ZM22.8759 110.377L21.7626 110.162C22.1902 107.937 22.6969 105.695 23.2676 103.5L24.3649 103.785C23.8002 105.957 23.2992 108.175 22.8759 110.377ZM229.9 110.011C229.468 107.808 228.959 105.592 228.388 103.424L229.484 103.135C230.062 105.326 230.576 107.566 231.013 109.793L229.9 110.011ZM26.2766 97.3025L25.1998 96.947C25.9115 94.7922 26.7038 92.6308 27.555 90.5226L28.6063 90.9473C27.7642 93.0329 26.9806 95.171 26.2766 97.3025ZM226.454 96.949C225.742 94.8205 224.952 92.6885 224.106 90.6118L225.156 90.1837C226.012 92.2828 226.81 94.4379 227.53 96.5891L226.454 96.949ZM31.3413 84.7568L30.3193 84.2651C31.3028 82.2202 32.3663 80.1798 33.48 78.2009L34.4682 78.7573C33.3662 80.715 32.3143 82.7336 31.3413 84.7568ZM221.358 84.4475C220.382 82.434 219.326 80.4229 218.219 78.4702L219.205 77.911C220.324 79.8844 221.391 81.9174 222.378 83.9531L221.358 84.4475ZM37.9727 72.9719L37.0222 72.3534C38.2587 70.4525 39.5739 68.5658 40.9308 66.746L41.8399 67.4237C40.4973 69.2244 39.196 71.091 37.9727 72.9719ZM214.701 72.705C213.474 70.831 212.17 68.9703 210.822 67.1746L211.729 66.494C213.091 68.3091 214.41 70.1898 215.65 72.0838L214.701 72.705ZM46.0525 62.1355L45.1888 61.4013C46.6574 59.6734 48.2012 57.9702 49.7774 56.3393L50.5929 57.1272C49.0333 58.741 47.5058 60.4262 46.0525 62.1355ZM206.597 61.9018C205.139 60.1972 203.606 58.517 202.043 56.9079L202.856 56.1178C204.436 57.7438 205.985 59.442 207.458 61.1649L206.597 61.9018ZM55.4419 52.4187L54.6785 51.5804C56.3562 50.0519 58.1035 48.5594 59.8713 47.1446L60.5799 48.03C58.8307 49.4298 57.102 50.9065 55.4419 52.4187ZM197.179 52.213C195.517 50.7078 193.783 49.2354 192.026 47.8373L192.732 46.9497C194.508 48.3631 196.26 49.8509 197.94 51.3725L197.179 52.213ZM65.9859 43.9782L65.3354 43.0497C67.1907 41.7493 69.1129 40.4921 71.0487 39.3127L71.6386 40.2811C69.7235 41.448 67.8215 42.692 65.9859 43.9782ZM186.604 43.7977C184.758 42.5128 182.85 41.2731 180.933 40.1128L181.52 39.1427C183.457 40.3152 185.386 41.5682 187.251 42.8669L186.604 43.7977ZM77.5137 36.9544L76.9872 35.95C78.9917 34.8985 81.0578 33.8979 83.1276 32.9763L83.5888 34.0123C81.5409 34.9239 79.4972 35.914 77.5137 36.9544ZM175.036 36.7988C173.045 35.7623 170.993 34.7769 168.937 33.87L169.395 32.8323C171.473 33.749 173.547 34.7451 175.56 35.7927L175.036 36.7988ZM89.838 31.4685L89.4443 30.4048C91.5703 29.6183 93.7502 28.8907 95.9238 28.2426L96.2477 29.3295C94.0974 29.9704 91.9409 30.6903 89.838 31.4685ZM162.66 31.3398C160.553 30.5687 158.394 29.8567 156.243 29.2238L156.563 28.1357C158.737 28.7755 160.92 29.4954 163.05 30.275L162.66 31.3398ZM102.782 27.6089L102.529 26.5037C104.735 25.9981 106.99 25.5577 109.232 25.1936L109.414 26.3132C107.196 26.6731 104.964 27.1089 102.782 27.6089ZM149.702 27.5264C147.516 27.0336 145.283 26.6056 143.066 26.2539L143.243 25.1338C145.485 25.4893 147.741 25.922 149.951 26.4201L149.702 27.5264ZM116.115 25.4452L116.005 24.3168C118.256 24.0983 120.549 23.9491 122.82 23.8735L122.858 25.007C120.611 25.0818 118.342 25.2293 116.115 25.4452ZM136.361 25.4101C134.131 25.2016 131.861 25.0621 129.617 24.9954L129.651 23.8619C131.919 23.9295 134.212 24.0704 136.467 24.2811L136.361 25.4101Z" fill="#D0CDE1"/>
<path d="M122.455 53.298C137.171 53.298 149.101 41.3668 149.101 26.649C149.101 11.9312 137.171 0 122.455 0C107.74 0 95.8101 11.9312 95.8101 26.649C95.8101 41.3668 107.74 53.298 122.455 53.298Z" fill="#E49773"/>
<path d="M225.636 125.874C240.352 125.874 252.281 113.943 252.281 99.2249C252.281 84.5071 240.352 72.5759 225.636 72.5759C210.92 72.5759 198.99 84.5071 198.99 99.2249C198.99 113.943 210.92 125.874 225.636 125.874Z" fill="#E49773"/>
<path d="M193.321 237.006C208.037 237.006 219.966 225.075 219.966 210.357C219.966 195.639 208.037 183.708 193.321 183.708C178.605 183.708 166.676 195.639 166.676 210.357C166.676 225.075 178.605 237.006 193.321 237.006Z" fill="#E49773"/>
<path d="M65.1962 241.542C79.9121 241.542 91.8416 229.611 91.8416 214.893C91.8416 200.175 79.9121 188.244 65.1962 188.244C50.4803 188.244 38.5508 200.175 38.5508 214.893C38.5508 229.611 50.4803 241.542 65.1962 241.542Z" fill="#E49773"/>
<path d="M26.6454 125.874C41.3613 125.874 53.2908 113.943 53.2908 99.2249C53.2908 84.5071 41.3613 72.5759 26.6454 72.5759C11.9296 72.5759 0 84.5071 0 99.2249C0 113.943 11.9296 125.874 26.6454 125.874Z" fill="#E49773"/>
<path d="M133.874 24.5243H124.58C123.735 24.5243 122.924 24.1886 122.327 23.5909C121.729 22.9932 121.394 22.1826 121.394 21.3374V12.0421C121.394 12.0072 121.387 11.9727 121.373 11.9404C121.36 11.9082 121.34 11.8789 121.316 11.8543C121.291 11.8296 121.262 11.81 121.23 11.7967C121.197 11.7834 121.163 11.7765 121.128 11.7765H115.02C113.894 11.7765 112.813 12.2242 112.016 13.0211C111.219 13.818 110.772 14.8988 110.772 16.0258V37.2721C110.772 38.3991 111.219 39.4799 112.016 40.2768C112.813 41.0737 113.894 41.5214 115.02 41.5214H129.891C131.018 41.5214 132.098 41.0737 132.895 40.2768C133.692 39.4799 134.14 38.3991 134.14 37.2721V24.7899C134.14 24.755 134.133 24.7205 134.119 24.6883C134.106 24.656 134.087 24.6268 134.062 24.6021C134.037 24.5774 134.008 24.5579 133.976 24.5445C133.943 24.5312 133.909 24.5243 133.874 24.5243ZM127.767 35.1475H117.145C116.863 35.1475 116.593 35.0356 116.394 34.8364C116.195 34.6371 116.083 34.3669 116.083 34.0852C116.083 33.8034 116.195 33.5332 116.394 33.334C116.593 33.1348 116.863 33.0229 117.145 33.0229H127.767C128.048 33.0229 128.318 33.1348 128.518 33.334C128.717 33.5332 128.829 33.8034 128.829 34.0852C128.829 34.3669 128.717 34.6371 128.518 34.8364C128.318 35.0356 128.048 35.1475 127.767 35.1475ZM127.767 29.8359H117.145C116.863 29.8359 116.593 29.724 116.394 29.5248C116.195 29.3255 116.083 29.0553 116.083 28.7736C116.083 28.4918 116.195 28.2216 116.394 28.0224C116.593 27.8232 116.863 27.7113 117.145 27.7113H127.767C128.048 27.7113 128.318 27.8232 128.518 28.0224C128.717 28.2216 128.829 28.4918 128.829 28.7736C128.829 29.0553 128.717 29.3255 128.518 29.5248C128.318 29.724 128.048 29.8359 127.767 29.8359Z" fill="white"/>
<path d="M133.291 22.1733L123.744 12.625C123.725 12.6066 123.702 12.594 123.676 12.5889C123.65 12.5839 123.624 12.5865 123.6 12.5965C123.575 12.6065 123.555 12.6234 123.54 12.6452C123.526 12.6669 123.518 12.6925 123.518 12.7187V21.3374C123.518 21.6191 123.629 21.8893 123.829 22.0886C124.028 22.2878 124.298 22.3997 124.58 22.3997H133.197C133.224 22.3996 133.249 22.3917 133.271 22.3772C133.293 22.3626 133.309 22.3418 133.319 22.3177C133.329 22.2935 133.332 22.2668 133.327 22.2412C133.322 22.2155 133.309 22.1919 133.291 22.1733Z" fill="white"/>
<path d="M197.175 205.107C196.848 205.107 196.532 205.221 196.279 205.428C196.027 205.636 195.854 205.924 195.791 206.245C195.727 206.565 195.777 206.898 195.931 207.186C196.085 207.474 196.334 207.7 196.636 207.825C196.938 207.95 197.274 207.966 197.586 207.871C197.899 207.776 198.169 207.575 198.35 207.304C198.532 207.032 198.613 206.706 198.581 206.381C198.549 206.055 198.405 205.752 198.174 205.521C198.043 205.389 197.887 205.285 197.716 205.215C197.544 205.144 197.36 205.107 197.175 205.107Z" fill="white"/>
<path d="M205.036 199.46V199.455C204.992 199.259 204.893 199.079 204.752 198.936C204.61 198.793 204.431 198.692 204.236 198.645C202.659 198.261 200.179 198.671 197.43 199.771C194.787 200.799 192.369 202.33 190.31 204.281C189.748 204.84 189.225 205.438 188.747 206.071C187.689 205.998 186.629 206.168 185.648 206.569C182.593 207.913 181.721 211.354 181.488 212.767C181.455 212.968 181.468 213.174 181.527 213.368C181.586 213.563 181.689 213.742 181.828 213.89C181.967 214.039 182.139 214.153 182.329 214.224C182.52 214.296 182.724 214.322 182.927 214.302H182.934L186.337 213.93C186.341 213.974 186.346 214.013 186.349 214.05C186.393 214.464 186.578 214.852 186.873 215.146L188.534 216.808C188.828 217.104 189.215 217.289 189.63 217.333L189.743 217.345L189.373 220.744V220.751C189.355 220.924 189.372 221.098 189.421 221.265C189.471 221.431 189.553 221.586 189.662 221.721C189.772 221.856 189.907 221.968 190.06 222.05C190.212 222.133 190.38 222.185 190.553 222.203C190.593 222.207 190.634 222.209 190.675 222.21C190.749 222.21 190.822 222.204 190.895 222.192C192.315 221.963 195.754 221.101 197.095 218.029C197.492 217.051 197.663 215.996 197.595 214.942C198.23 214.465 198.83 213.942 199.391 213.379C201.34 211.339 202.873 208.939 203.905 206.314C204.999 203.596 205.411 201.097 205.036 199.46ZM199.372 208.713C198.937 209.148 198.384 209.445 197.781 209.565C197.177 209.686 196.552 209.624 195.984 209.389C195.416 209.154 194.93 208.756 194.588 208.245C194.246 207.733 194.063 207.132 194.063 206.517C194.063 205.902 194.245 205.301 194.586 204.789C194.928 204.278 195.413 203.879 195.981 203.643C196.549 203.407 197.174 203.345 197.777 203.465C198.381 203.585 198.935 203.881 199.37 204.315L199.372 204.318C199.955 204.892 200.286 205.674 200.292 206.492C200.298 207.31 199.979 208.097 199.405 208.68L199.372 208.713Z" fill="white"/>
<path d="M188.344 217.259C188.139 217.234 187.932 217.284 187.762 217.4C187.424 217.632 187.084 217.86 186.741 218.083C186.592 218.179 186.416 218.222 186.239 218.205C186.063 218.188 185.898 218.113 185.77 217.991C185.641 217.869 185.558 217.707 185.533 217.532C185.507 217.357 185.542 217.178 185.63 217.025L186.273 215.913C186.365 215.779 186.416 215.621 186.42 215.458C186.425 215.295 186.382 215.135 186.297 214.995C186.212 214.856 186.09 214.745 185.943 214.674C185.796 214.603 185.632 214.575 185.471 214.595C184.757 214.686 184.094 215.011 183.586 215.519C183.392 215.713 182.803 216.303 182.486 218.549C182.396 219.194 182.339 219.844 182.316 220.495C182.313 220.606 182.332 220.716 182.372 220.82C182.412 220.924 182.472 221.019 182.548 221.1C182.625 221.18 182.717 221.245 182.818 221.29C182.92 221.335 183.029 221.36 183.14 221.363C183.148 221.363 183.155 221.363 183.162 221.363H183.184C183.835 221.34 184.485 221.283 185.131 221.194C187.378 220.876 187.967 220.287 188.161 220.093C188.672 219.584 188.996 218.918 189.081 218.202C189.108 217.979 189.046 217.755 188.907 217.578C188.769 217.401 188.566 217.286 188.344 217.259Z" fill="white"/>
<path d="M56.0262 229.374H54.0956C53.7116 229.374 53.3433 229.222 53.0718 228.95C52.8003 228.678 52.6477 228.31 52.6477 227.926V219.237C52.6477 218.853 52.8003 218.485 53.0718 218.213C53.3433 217.942 53.7116 217.789 54.0956 217.789H56.0262C56.4102 217.789 56.7785 217.942 57.05 218.213C57.3216 218.485 57.4741 218.853 57.4741 219.237V227.926C57.4741 228.31 57.3216 228.678 57.05 228.95C56.7785 229.222 56.4102 229.374 56.0262 229.374Z" fill="white"/>
<path d="M69.5401 229.374H67.6096C67.2255 229.374 66.8572 229.221 66.5857 228.95C66.3142 228.678 66.1616 228.31 66.1616 227.926V213.445C66.1616 213.061 66.3142 212.692 66.5857 212.421C66.8572 212.149 67.2255 211.997 67.6096 211.997H69.5401C69.9241 211.997 70.2924 212.149 70.5639 212.421C70.8355 212.692 70.988 213.061 70.988 213.445V227.926C70.988 228.31 70.8355 228.678 70.5639 228.95C70.2924 229.221 69.9241 229.374 69.5401 229.374Z" fill="white"/>
<path d="M76.2969 229.374H74.3664C73.9824 229.374 73.6141 229.221 73.3425 228.95C73.071 228.678 72.9185 228.31 72.9185 227.926V206.687C72.9185 206.303 73.071 205.935 73.3425 205.663C73.6141 205.391 73.9824 205.239 74.3664 205.239H76.2969C76.6809 205.239 77.0492 205.391 77.3208 205.663C77.5923 205.935 77.7449 206.303 77.7449 206.687V227.926C77.7449 228.31 77.5923 228.678 77.3208 228.95C77.0492 229.221 76.6809 229.374 76.2969 229.374Z" fill="white"/>
<path d="M62.783 229.374H60.8525C60.4684 229.374 60.1002 229.221 59.8286 228.95C59.5571 228.678 59.4045 228.31 59.4045 227.926V201.86C59.4045 201.476 59.5571 201.108 59.8286 200.836C60.1002 200.564 60.4684 200.412 60.8525 200.412H62.783C63.167 200.412 63.5353 200.564 63.8069 200.836C64.0784 201.108 64.2309 201.476 64.2309 201.86V227.926C64.2309 228.116 64.1935 228.304 64.1207 228.48C64.0479 228.656 63.9413 228.815 63.8068 228.95C63.6724 229.084 63.5128 229.191 63.3371 229.264C63.1614 229.337 62.9731 229.374 62.783 229.374Z" fill="white"/>
<path d="M226.912 98.5271L225.533 97.1471C225.217 96.831 224.789 96.6529 224.342 96.6517C223.895 96.6506 223.466 96.8264 223.148 97.1407L213.559 105.992C213.207 106.303 212.992 106.741 212.959 107.21C212.949 107.443 212.987 107.676 213.071 107.893C213.155 108.111 213.282 108.309 213.446 108.475L215.506 110.558L215.51 110.562C215.828 110.879 216.259 111.058 216.708 111.059H216.771C217.004 111.046 217.231 110.988 217.442 110.886C217.652 110.785 217.84 110.643 217.995 110.469L226.906 100.922C227.225 100.607 227.405 100.178 227.407 99.7292C227.409 99.2808 227.232 98.85 226.917 98.5316L226.912 98.5271Z" fill="white"/>
<path d="M237.997 95.738L237.981 95.7217L236.17 93.9296C236.064 93.8239 235.938 93.7402 235.8 93.6835C235.661 93.6267 235.513 93.5979 235.363 93.5989C235.121 93.5991 234.884 93.6756 234.687 93.8176C234.687 93.7949 234.691 93.7727 234.692 93.7531C234.765 93.2904 234.668 92.8168 234.418 92.4207C234.019 91.883 233.581 91.3755 233.107 90.9023L233.103 90.898C231.78 89.6282 230.225 88.6248 228.522 87.9426C227.633 87.5774 226.68 87.3898 225.718 87.3905C224.473 87.3792 223.264 87.803 222.298 88.5887C222.023 88.8513 221.772 89.1381 221.549 89.4457C221.442 89.593 221.386 89.771 221.388 89.9529C221.39 90.1349 221.452 90.3113 221.562 90.4558C221.673 90.6002 221.827 90.7051 222.002 90.7548C222.177 90.8045 222.364 90.7964 222.534 90.7316C222.682 90.6762 222.833 90.6298 222.987 90.5927C223.307 90.525 223.636 90.5045 223.962 90.5319C224.638 90.6025 225.286 90.8401 225.847 91.2235C226.162 91.4886 226.412 91.8218 226.579 92.1978C226.746 92.5739 226.826 92.9831 226.812 93.3944C226.577 94.0626 226.219 94.6806 225.755 95.216C225.632 95.379 225.571 95.5811 225.585 95.7851C225.599 95.9892 225.687 96.1811 225.832 96.3255L227.65 98.1435C227.802 98.2966 228.008 98.3854 228.224 98.3915C228.44 98.3976 228.651 98.3205 228.812 98.1762C229.326 97.7171 230.109 97.025 230.382 96.8554C230.616 96.6989 230.881 96.5944 231.159 96.549C231.366 96.5287 231.574 96.5726 231.755 96.6748C231.756 96.6838 231.755 96.6929 231.752 96.7016C231.749 96.7102 231.745 96.7182 231.739 96.7249L231.643 96.8163L231.627 96.8311C231.413 97.044 231.293 97.3329 231.292 97.6345C231.292 97.936 231.411 98.2254 231.624 98.439L231.629 98.4446L233.439 100.236C233.545 100.342 233.671 100.425 233.81 100.482C233.948 100.539 234.097 100.567 234.246 100.566C234.547 100.567 234.836 100.449 235.05 100.239L237.982 97.3425C237.992 97.3325 238.002 97.3219 238.012 97.3114C238.208 97.0957 238.316 96.8137 238.313 96.5218C238.311 96.23 238.198 95.9499 237.997 95.738Z" fill="white"/>
<path d="M30.876 97.6383C30.6668 97.6383 30.4623 97.5763 30.2884 97.46C30.1145 97.3438 29.9789 97.1786 29.8989 96.9853C29.8188 96.792 29.7979 96.5794 29.8387 96.3742C29.8795 96.169 29.9802 95.9805 30.1281 95.8326L32.5532 93.4072L30.1281 90.9817C29.9298 90.7834 29.8184 90.5143 29.8184 90.2338C29.8184 89.9532 29.9298 89.6842 30.1281 89.4858C30.3265 89.2875 30.5955 89.176 30.876 89.176C31.1565 89.176 31.4255 89.2875 31.6238 89.4858L34.7968 92.6592C34.895 92.7574 34.9729 92.874 35.0261 93.0024C35.0792 93.1307 35.1066 93.2682 35.1066 93.4072C35.1066 93.5461 35.0792 93.6836 35.0261 93.812C34.9729 93.9403 34.895 94.0569 34.7968 94.1551L31.6238 97.3285C31.5257 97.4269 31.4092 97.5049 31.2808 97.558C31.1525 97.6112 31.0149 97.6385 30.876 97.6383Z" fill="white"/>
<path d="M13.9536 100.812C13.8148 100.812 13.6772 100.784 13.5489 100.731C13.4206 100.678 13.304 100.6 13.2058 100.502C13.1076 100.404 13.0296 100.287 12.9765 100.159C12.9233 100.03 12.896 99.8928 12.896 99.7539V98.6961C12.9043 97.0159 13.5751 95.4069 14.7627 94.2186C15.9503 93.0302 17.5588 92.3585 19.2387 92.3494H32.9913C33.2718 92.3494 33.5408 92.4608 33.7392 92.6592C33.9375 92.8576 34.049 93.1266 34.049 93.4071C34.049 93.6877 33.9375 93.9567 33.7392 94.1551C33.5408 94.3535 33.2718 94.4649 32.9913 94.4649H19.2419C18.1214 94.4716 17.0487 94.9199 16.2566 95.7127C15.4646 96.5054 15.0171 97.5786 15.0113 98.6993V99.7539C15.0113 99.8928 14.9839 100.03 14.9308 100.159C14.8776 100.287 14.7997 100.404 14.7015 100.502C14.6033 100.6 14.4867 100.678 14.3584 100.731C14.2301 100.784 14.0925 100.812 13.9536 100.812Z" fill="white"/>
<path d="M22.4149 109.274C22.276 109.274 22.1384 109.247 22.0101 109.194C21.8818 109.141 21.7652 109.063 21.6671 108.964L18.4941 105.791C18.3959 105.693 18.318 105.576 18.2648 105.448C18.2117 105.319 18.1843 105.182 18.1843 105.043C18.1843 104.904 18.2117 104.766 18.2648 104.638C18.318 104.51 18.3959 104.393 18.4941 104.295L21.6671 101.122C21.8655 100.923 22.1344 100.812 22.4147 100.812C22.6951 100.813 22.9639 100.924 23.1621 101.122C23.3603 101.32 23.4717 101.589 23.4719 101.87C23.472 102.15 23.3608 102.419 23.1628 102.617L20.7378 105.043L23.1628 107.468C23.3107 107.616 23.4114 107.805 23.4522 108.01C23.493 108.215 23.4721 108.428 23.392 108.621C23.312 108.814 23.1764 108.979 23.0025 109.096C22.8286 109.212 22.6241 109.274 22.4149 109.274Z" fill="white"/>
<path d="M20.2996 106.101C20.0191 106.101 19.7501 105.989 19.5517 105.791C19.3534 105.592 19.2419 105.323 19.2419 105.043C19.2419 104.762 19.3534 104.493 19.5517 104.295C19.7501 104.096 20.0191 103.985 20.2996 103.985H34.049C35.1695 103.978 36.2422 103.53 37.0342 102.737C37.8263 101.945 38.2738 100.871 38.2796 99.7507V98.6961C38.2796 98.4156 38.391 98.1465 38.5893 97.9481C38.7877 97.7498 39.0567 97.6383 39.3372 97.6383C39.6177 97.6383 39.8867 97.7498 40.0851 97.9481C40.2834 98.1465 40.3949 98.4156 40.3949 98.6961V99.7539C40.3866 101.434 39.7158 103.043 38.5282 104.231C37.3405 105.42 35.732 106.092 34.0521 106.101L20.2996 106.101Z" fill="white"/>
</g>
<defs>
<clipPath id="clip0_375_302">
<rect width="420" height="345" fill="white"/>
</clipPath>
</defs>
</svg>
