<svg width="160" height="28" viewBox="0 0 160 28" fill="none" xmlns="http://www.w3.org/2000/svg">
<path d="M13.0891 0.230713C9.48045 0.230713 6.39715 1.50213 3.83844 4.04421C1.27973 6.60292 0 9.68622 0 13.2949C0 16.9028 1.27973 19.9868 3.83844 22.5455C6.39715 25.1042 9.48045 26.3832 13.0891 26.3832C15.2699 26.3832 17.0908 25.9811 18.5505 25.1776C19.1574 24.8495 19.5588 24.3574 19.7561 23.7013C19.9526 23.0452 19.8869 22.414 19.5588 21.807C19.2474 21.2 18.7636 20.7987 18.1075 20.6014C17.6812 20.4706 17.0417 20.5364 16.189 20.7987C15.1225 21.1758 14.0892 21.3724 13.0891 21.389C10.8418 21.389 8.93091 20.6014 7.35638 19.0268C5.76522 17.4364 4.97002 15.5255 4.97002 13.2949C4.97002 11.0642 5.76522 9.16163 7.35638 7.5871C8.93091 5.99593 10.8418 5.20073 13.0891 5.20073C15.3197 5.20073 17.2216 5.99593 18.7969 7.5871C20.3873 9.16163 21.1832 11.0642 21.1832 13.2949V23.8736C21.1832 24.5623 21.4206 25.1534 21.896 25.6455C22.3881 26.1375 22.9792 26.3832 23.6679 26.3832C24.3565 26.3832 24.9393 26.1375 25.4147 25.6455C25.9068 25.1534 26.1525 24.5623 26.1525 23.8736V13.2949C26.1525 9.68622 24.8735 6.60292 22.3148 4.04421C19.7561 1.50213 16.6804 0.230713 13.0891 0.230713Z" fill="black"/>
<path d="M141.998 2.95043C141.703 2.86596 141.469 2.82373 141.296 2.82373C140.561 2.82373 139.982 3.1729 139.559 3.8705C139.403 4.15406 139.326 4.44818 139.326 4.75135V4.8328C139.326 5.34788 139.565 5.85241 140.042 6.34714L146.479 14.6006V14.6157C142.059 20.265 139.761 23.2093 139.586 23.4483C139.412 23.75 139.326 24.0622 139.326 24.3835V24.4649C139.326 25.1995 139.693 25.7726 140.429 26.1844C140.648 26.2952 140.832 26.3503 140.979 26.3503H141.626C141.902 26.3503 142.242 26.1806 142.647 25.8405C142.82 25.658 144.157 23.9611 146.658 20.7515L148.988 17.7922C149.308 18.2251 151.375 20.8751 155.189 25.744C155.62 26.1482 155.997 26.3503 156.32 26.3503H156.981C157.33 26.3503 157.729 26.1263 158.178 25.6776C158.472 25.2817 158.619 24.8737 158.619 24.4529C158.619 23.9302 158.436 23.4664 158.069 23.0622C152.998 16.5689 148.1 10.3004 143.376 4.25662C142.833 3.51303 142.374 3.07713 141.998 2.95043Z" fill="black"/>
<path d="M122.744 0.0473633C119.136 0.0473633 116.052 1.31802 113.493 3.86086C110.934 6.41957 109.655 9.50287 109.655 13.1115C109.655 16.7202 110.934 19.8035 113.493 22.3622C116.052 24.9209 119.136 26.2006 122.744 26.2006C124.925 26.2006 126.746 25.7985 128.206 24.995C128.813 24.6669 129.215 24.1748 129.411 23.5187C129.608 22.8626 129.543 22.2314 129.215 21.6244C128.903 21.0174 128.419 20.6153 127.763 20.4188C127.337 20.2872 126.697 20.353 125.844 20.6153C124.778 20.9932 123.745 21.1898 122.744 21.2064C120.497 21.2064 118.586 20.4188 117.011 18.8442C115.421 17.2531 114.625 15.3422 114.625 13.1115C114.625 10.8809 115.421 8.97828 117.011 7.40374C118.586 5.81258 120.497 5.01738 122.744 5.01738C124.974 5.01738 126.878 5.81258 128.452 7.40374C130.043 8.97828 130.839 10.8809 130.839 13.1115V23.691C130.839 24.3797 131.076 24.9708 131.552 25.4629C132.044 25.9549 132.635 26.2006 133.323 26.2006C134.013 26.2006 134.595 25.9549 135.07 25.4629C135.562 24.9708 135.809 24.3797 135.809 23.691V13.1115C135.809 9.50287 134.529 6.41957 131.97 3.86086C129.411 1.31802 126.336 0.0473633 122.744 0.0473633Z" fill="black"/>
<path d="M88.2565 8.48207C89.8311 6.92417 91.7253 6.14484 93.9394 6.14484C96.1866 6.14484 98.0975 6.93249 99.6721 8.50702C101.263 10.0974 102.058 12.0083 102.058 14.239C102.058 16.4696 101.263 18.3722 99.6721 19.9468C98.0975 21.5379 96.1866 22.3331 93.9394 22.3331C91.742 22.3331 89.856 21.5621 88.2815 20.0208C87.7894 19.5287 87.1983 19.2906 86.5097 19.3073C85.821 19.3073 85.239 19.5529 84.7628 20.045C84.2707 20.5371 84.0333 21.1275 84.0492 21.8168C84.0492 22.5055 84.2956 23.0875 84.7877 23.5637C87.3298 26.0567 90.3806 27.3031 93.9394 27.3031C97.548 27.3031 100.631 26.0317 103.19 23.4896C105.749 20.9309 107.028 17.8476 107.028 14.239C107.028 10.6311 105.749 7.54703 103.19 4.98832C100.631 2.42961 97.548 1.15063 93.9394 1.15063C90.364 1.15063 87.3056 2.40542 84.7628 4.915C84.2707 5.40709 84.025 5.99744 84.025 6.68606C84.025 7.37468 84.2631 7.95748 84.7386 8.43294C85.2307 8.92503 85.821 9.17901 86.5097 9.19564C87.1983 9.19564 87.7811 8.95753 88.2565 8.48207Z" fill="black"/>
<path d="M67.9747 0C64.3661 0 61.2828 1.27066 58.7241 3.8135C56.1646 6.3722 54.8856 9.4555 54.8856 13.0642C54.8856 16.6728 56.1646 19.7561 58.7241 22.3148C61.2828 24.8735 64.3661 26.1533 67.9747 26.1533C71.5667 26.1533 74.6425 24.8735 77.2012 22.3148C79.7599 19.7561 81.0389 16.6728 81.0389 13.0642C81.0389 9.4555 79.7599 6.3722 77.2012 3.8135C74.6425 1.27066 71.5667 0 67.9747 0ZM67.9747 21.159C65.7274 21.159 63.8165 20.3714 62.242 18.7969C60.6508 17.2057 59.8556 15.2948 59.8556 13.0642C59.8556 10.8335 60.6508 8.93091 62.242 7.35638C63.8165 5.76522 65.7274 4.97002 67.9747 4.97002C70.2054 4.97002 72.108 5.76522 73.6825 7.35638C75.2737 8.93091 76.0689 10.8335 76.0689 13.0642C76.0689 15.2948 75.2737 17.2057 73.6825 18.7969C72.108 20.3714 70.2054 21.159 67.9747 21.159Z" fill="black"/>
<path d="M47.6563 18.957C46.0817 20.5149 44.1875 21.2943 41.9734 21.2943C39.7262 21.2943 37.8153 20.5066 36.2407 18.9321C34.6496 17.3417 33.8544 15.4308 33.8544 13.2001C33.8544 10.9695 34.6496 9.0669 36.2407 7.49237C37.8153 5.90121 39.7262 5.106 41.9734 5.106C44.1708 5.106 46.0568 5.87702 47.6313 7.41829C48.1234 7.91038 48.7145 8.14849 49.4031 8.13186C50.0918 8.13186 50.6738 7.88619 51.15 7.3941C51.6421 6.90201 51.8795 6.31166 51.8636 5.62228C51.8636 4.93366 51.6172 4.35162 51.1251 3.87541C48.583 1.38246 45.5322 0.135986 41.9734 0.135986C38.3648 0.135986 35.2815 1.4074 32.7228 3.94948C30.1641 6.50819 28.8843 9.59149 28.8843 13.2001C28.8843 16.808 30.1641 19.8921 32.7228 22.4508C35.2815 25.0095 38.3648 26.2885 41.9734 26.2885C45.5488 26.2885 48.6072 25.0337 51.15 22.5241C51.6421 22.032 51.8878 21.4417 51.8878 20.7531C51.8878 20.0644 51.6497 19.4816 51.1742 19.0062C50.6821 18.5141 50.0918 18.2601 49.4031 18.2435C48.7145 18.2435 48.1317 18.4816 47.6563 18.957Z" fill="black"/>
<mask id="mask0_484_2" style="mask-type:luminance" maskUnits="userSpaceOnUse" x="150" y="2" width="10" height="11">
<path d="M156.158 2.01577L159.328 4.52472L153.222 12.2373L150.053 9.72833L156.158 2.01577Z" fill="white"/>
</mask>
<g mask="url(#mask0_484_2)">
<mask id="mask1_484_2" style="mask-type:luminance" maskUnits="userSpaceOnUse" x="150" y="2" width="9" height="10">
<path d="M157.743 3.27014C158.618 3.96244 158.766 5.23369 158.074 6.1087L154.483 10.6445C153.791 11.5195 152.52 11.6679 151.645 10.9749C150.769 10.2818 150.621 9.01126 151.314 8.13556L154.904 3.6005C155.597 2.7248 156.868 2.57708 157.743 3.27014Z" fill="white"/>
</mask>
<g mask="url(#mask1_484_2)">
<path d="M156.159 2.01581L159.328 4.52476L153.233 12.2252L150.063 9.71625L156.159 2.01581Z" fill="#E49773"/>
</g>
</g>
</svg>
