<svg width="32" height="32" viewBox="0 0 32 32" fill="none" xmlns="http://www.w3.org/2000/svg">
<path d="M27.4286 19.0217V9.13044L19.8095 3.80435L12.1905 9.13044V11.413H9.14286V7.6087L19.8095 0L30.4762 7.6087V19.0217H27.4286ZM20.5714 9.8913H22.0952V8.36957H20.5714V9.8913ZM17.5238 9.8913H19.0476V8.36957H17.5238V9.8913ZM20.5714 12.9348H22.0952V11.413H20.5714V12.9348ZM17.5238 12.9348H19.0476V11.413H17.5238V12.9348ZM9.14286 25.8696L19.7333 28.7609L28.8 25.9457C28.673 25.7174 28.4889 25.5208 28.2476 25.356C28.0063 25.1911 27.7333 25.1087 27.4286 25.1087H19.7333C19.0476 25.1087 18.5016 25.0833 18.0952 25.0326C17.6889 24.9819 17.2698 24.8804 16.8381 24.7283L13.2952 23.5489L14.1333 20.5815L17.219 21.6087C17.6508 21.7355 18.1587 21.837 18.7429 21.913C19.327 21.9891 20.1905 22.0399 21.3333 22.0652C21.3333 21.7862 21.2508 21.5199 21.0857 21.2663C20.9206 21.0127 20.7238 20.8478 20.4952 20.7717L11.581 17.5H9.14286V25.8696ZM0 31.1957V14.4565H11.581C11.7587 14.4565 11.9365 14.4755 12.1143 14.5136C12.2921 14.5516 12.4571 14.596 12.6095 14.6467L21.5619 17.9565C22.4 18.2609 23.0794 18.7935 23.6 19.5543C24.1206 20.3152 24.381 21.1522 24.381 22.0652H27.4286C28.6984 22.0652 29.7778 22.4837 30.6667 23.3207C31.5556 24.1576 32 25.2609 32 26.6304V28.1522L19.8095 31.9565L9.14286 28.9891V31.1957H0ZM3.04762 28.1522H6.09524V17.5H3.04762V28.1522Z" fill="#CA9575"/>
</svg>
