<svg width="35" height="35" viewBox="0 0 35 35" fill="none" xmlns="http://www.w3.org/2000/svg">
<path d="M11.725 19.1187L14.1312 20.7375L17.5 19.0312L20.8687 20.7375L23.1875 19.2063L21.4375 15.75H13.3875L11.725 19.1187ZM5.64375 31.5H29.3125L24.7625 22.3563L21.1313 24.7625L17.5 22.9688L13.8688 24.7625L10.15 22.3125L5.64375 31.5ZM0 35L10.2375 14.2188C10.5292 13.6354 10.9594 13.1615 11.5281 12.7969C12.0969 12.4323 12.7167 12.25 13.3875 12.25H15.75V0H28L26.25 3.5L28 7H19.25V12.25H21.4375C22.1083 12.25 22.7208 12.425 23.275 12.775C23.8292 13.125 24.2667 13.5917 24.5875 14.175L35 35H0Z" fill="#6A82FB"/>
</svg>
