<svg width="42" height="40" viewBox="0 0 42 40" fill="none" xmlns="http://www.w3.org/2000/svg">
<path d="M39.5522 1.68164L23.7842 13.1689L26.7242 6.3971L39.5522 1.68164Z" fill="#E17726" stroke="#E17726" stroke-width="0.25" stroke-linecap="round" stroke-linejoin="round"/>
<path d="M3.19193 1.68164L18.8159 13.2635L16.0199 6.40891L3.19193 1.68164ZM33.8759 28.308L29.6759 34.6189L38.6639 37.0535L41.2319 28.4498L33.8759 28.308ZM1.52393 28.4498L4.07993 37.0535L13.0439 34.6189L8.86793 28.308L1.52393 28.4498Z" fill="#E27625" stroke="#E27625" stroke-width="0.25" stroke-linecap="round" stroke-linejoin="round"/>
<path d="M12.5639 17.6482L10.0679 21.3591L18.9479 21.7609L18.6599 12.3418L12.5639 17.66V17.6482ZM30.1799 17.66L23.9879 12.2236L23.7839 21.7609L32.6639 21.3591L30.1799 17.66ZM13.0439 34.6191L18.4319 32.0663L13.7999 28.5209L13.0439 34.6191ZM24.3239 32.0545L29.6759 34.6191L28.9559 28.5091L24.3239 32.0545Z" fill="#E27625" stroke="#E27625" stroke-width="0.25" stroke-linecap="round" stroke-linejoin="round"/>
<path d="M29.6762 34.6191L24.3242 32.0664L24.7562 35.4937L24.7082 36.9473L29.6762 34.6191ZM13.0442 34.6191L18.0362 36.9473L18.0002 35.4937L18.4322 32.0664L13.0442 34.6191Z" fill="#D5BFB2" stroke="#D5BFB2" stroke-width="0.25" stroke-linecap="round" stroke-linejoin="round"/>
<path d="M18.1199 26.2396L13.6799 24.9632L16.8239 23.545L18.1319 26.2396H18.1199ZM24.6119 26.2396L25.9319 23.5332L29.0879 24.9514L24.6119 26.2514V26.2396Z" fill="#233447" stroke="#233447" stroke-width="0.25" stroke-linecap="round" stroke-linejoin="round"/>
<path d="M13.0439 34.6194L13.8239 28.3085L8.86792 28.4503L13.0439 34.6194ZM28.9199 28.3085L29.6759 34.6194L33.8759 28.4503L28.9199 28.3085ZM32.6759 21.3594L23.7959 21.7612L24.6119 26.2521L25.9319 23.5339L29.0879 24.9521L32.6759 21.3594ZM13.6799 24.9639L16.8239 23.5457L18.1319 26.2403L18.9599 21.7494L10.0799 21.3594L13.6799 24.9639Z" fill="#CC6228" stroke="#CC6228" stroke-width="0.25" stroke-linecap="round" stroke-linejoin="round"/>
<path d="M10.0798 21.3594L13.7998 28.5094L13.6798 24.9639L10.0798 21.3594ZM29.0878 24.9639L28.9438 28.5094L32.6638 21.3594L29.0878 24.9639ZM18.9598 21.7612L18.1198 26.2521L19.1758 31.5466L19.4158 24.5621L18.9598 21.7612ZM23.7838 21.7612L23.3518 24.5503L23.5678 31.5466L24.6118 26.2403L23.7838 21.7494V21.7612Z" fill="#E27525" stroke="#E27525" stroke-width="0.25" stroke-linecap="round" stroke-linejoin="round"/>
<path d="M24.612 26.2402L23.568 31.5466L24.324 32.0665L28.944 28.521L29.088 24.9639L24.612 26.2402ZM13.68 24.9639L13.8 28.5093L18.432 32.0548L19.176 31.5466L18.132 26.2402L13.668 24.9639H13.68Z" fill="#F5841F" stroke="#F5841F" stroke-width="0.25" stroke-linecap="round" stroke-linejoin="round"/>
<path d="M24.7202 36.9473L24.7562 35.4937L24.3482 35.1628H18.3962L18.0002 35.4937L18.0362 36.9473L13.0442 34.6191L14.7962 36.0373L18.3362 38.4364H24.3962L27.9482 36.0255L29.6762 34.6191L24.7082 36.9473H24.7202Z" fill="#C0AC9D" stroke="#C0AC9D" stroke-width="0.25" stroke-linecap="round" stroke-linejoin="round"/>
<path d="M24.324 32.0541L23.568 31.5459H19.176L18.432 32.0659L18 35.4932L18.396 35.1623H24.348L24.756 35.4932L24.324 32.0659V32.0541Z" fill="#161616" stroke="#161616" stroke-width="0.25" stroke-linecap="round" stroke-linejoin="round"/>
<path d="M40.2239 13.9135L41.5439 7.59073L39.5519 1.68164L24.312 12.7907L30.1799 17.648L38.4599 20.0235L40.2839 17.9316L39.4919 17.3644L40.7519 16.2298L39.792 15.4971L41.0519 14.5516L40.2119 13.9135H40.2239ZM1.19995 7.57891L2.54395 13.9135L1.67995 14.5398L2.96395 15.4853L2.00395 16.2298L3.25195 17.3644L2.45995 17.9316L4.28395 20.0235L12.564 17.6598L18.4319 12.7789L3.19195 1.68164L1.19995 7.57891Z" fill="#763E1A" stroke="#763E1A" stroke-width="0.25" stroke-linecap="round" stroke-linejoin="round"/>
<path d="M38.4599 20.0238L30.1799 17.6602L32.6759 21.3593L28.9559 28.5093L33.8759 28.4502H41.2319L38.4599 20.0238ZM12.5639 17.6484L4.28393 20.0238L1.52393 28.4502H8.87993L13.7999 28.5093L10.0799 21.3593L12.5759 17.6484H12.5639ZM23.7839 21.7611L24.3239 12.7793L26.7239 6.39746H16.0199L18.4199 12.7793L18.9599 21.7611L19.1639 24.5738V31.5466H23.5679L23.5919 24.5738L23.7839 21.7611Z" fill="#F5841F" stroke="#F5841F" stroke-width="0.25" stroke-linecap="round" stroke-linejoin="round"/>
</svg>
